<svg id="Capa_1" data-name="Capa 1" xmlns="http://www.w3.org/2000/svg" viewBox="0 0 160.01 49.63"><defs><style>.cls-1{fill:#fec12d;}.cls-2{fill:#636668;}</style></defs><title>SEJ enventos</title><g id="Grupo_5" data-name="Grupo 5"><g id="Grupo_1" data-name="Grupo 1"><path id="Trazado_3" data-name="Trazado 3" class="cls-1" d="M33.69,33.28c.33.47.4.85.22,1.15a1.22,1.22,0,0,1-1.12.45H23A1.82,1.82,0,0,1,21.33,34l-6.08-8.72H11v8.22a1.2,1.2,0,0,1-1,1.35H1.4A1.22,1.22,0,0,1,0,33.53V1.34C0,.45.47,0,1.4,0H16.3q7.38,0,11.48,3.24t4.11,9.42q0,7.43-5.77,10.51ZM11,8.72v7.87h4.38q5.43,0,5.43-3.93T15.45,8.72Z"/><path id="Trazado_4" data-name="Trazado 4" class="cls-1" d="M47.54,35.83q-6.63,0-10.64-3.67a12.39,12.39,0,0,1-4-9.64,12.63,12.63,0,0,1,3.81-9.61q3.81-3.64,10.14-3.64,6.77,0,10.39,3.61a12.91,12.91,0,0,1,3.61,9.54v1c0,.87-.5,1.3-1.5,1.3H42.65q.95,3.69,5,3.69a4,4,0,0,0,2.69-.95,3.11,3.11,0,0,1,1.8-.75h7a1.29,1.29,0,0,1,1.07.4,1.07,1.07,0,0,1,.13,1.05,10.39,10.39,0,0,1-4.58,5.6A15.59,15.59,0,0,1,47.54,35.83ZM42.7,20h9a4.17,4.17,0,0,0-1.47-2.71,4.53,4.53,0,0,0-3-1,4.72,4.72,0,0,0-3,1A4.15,4.15,0,0,0,42.7,20Z"/></g><g id="Grupo_2" data-name="Grupo 2"><path id="Trazado_5" data-name="Trazado 5" class="cls-2" d="M6.17,41.27a.26.26,0,0,1-.22.29H2.47v1H5.24c.2,0,.3.1.3.28v1.25a.26.26,0,0,1-.3.29H2.47v1h3.4a.27.27,0,0,1,.3.21V47a.26.26,0,0,1-.22.29H.39c-.2,0-.3-.09-.3-.29V40a.26.26,0,0,1,.3-.29H5.87a.27.27,0,0,1,.3.22v1.35Z"/><path id="Trazado_6" data-name="Trazado 6" class="cls-2" d="M13.89,47a.28.28,0,0,1-.23.33h0a4.46,4.46,0,0,1-1,.12A1.77,1.77,0,0,1,11,46.77a2.21,2.21,0,0,1-1.8.69,2.71,2.71,0,0,1-2-.8,3.19,3.19,0,0,1,0-4.16,2.74,2.74,0,0,1,2-.79,2.33,2.33,0,0,1,1.46.44V39.57a.27.27,0,0,1,.3-.3h1.68a.26.26,0,0,1,.29.22v5.63a.62.62,0,0,0,.08.35.33.33,0,0,0,.25.1l.17,0a.28.28,0,0,1,.32.25ZM9.61,45.79a1,1,0,0,0,.76-.32,1.52,1.52,0,0,0,0-1.77,1,1,0,0,0-.76-.33,1,1,0,0,0-.75.34,1.52,1.52,0,0,0,0,1.75.94.94,0,0,0,.75.33Z"/><path id="Trazado_7" data-name="Trazado 7" class="cls-2" d="M21.07,47a.27.27,0,0,1-.21.33h0a4.21,4.21,0,0,1-1,.12,1.8,1.8,0,0,1-1.68-.69,2.27,2.27,0,0,1-1.78.69,2.1,2.1,0,0,1-2.26-2,1.4,1.4,0,0,1,0-.29v-3c0-.19.1-.28.3-.28H16.1c.2,0,.3.09.3.28v2.49c0,.56.23.84.7.84a.65.65,0,0,0,.54-.21.88.88,0,0,0,.19-.6V42.2a.26.26,0,0,1,.29-.28h1.7c.2,0,.3.1.3.28v2.89a.82.82,0,0,0,.06.38.29.29,0,0,0,.25.1h.18c.2,0,.3.08.33.24Z"/><path id="Trazado_8" data-name="Trazado 8" class="cls-2" d="M24.22,47.46a3.28,3.28,0,0,1-2.3-.79,2.94,2.94,0,0,1,0-4.15v0a3.73,3.73,0,0,1,4.3-.2,2.34,2.34,0,0,1,1,1.58.23.23,0,0,1-.06.22.27.27,0,0,1-.23.08h-1.4a.36.36,0,0,1-.34-.25.94.94,0,0,0-.91-.52,1,1,0,0,0-.8.32,1.33,1.33,0,0,0,0,1.71,1.06,1.06,0,0,0,.8.33.91.91,0,0,0,.91-.54.39.39,0,0,1,.34-.24h1.4a.36.36,0,0,1,.23.08.23.23,0,0,1,.06.22,2.34,2.34,0,0,1-1,1.58A3.26,3.26,0,0,1,24.22,47.46Z"/><path id="Trazado_9" data-name="Trazado 9" class="cls-2" d="M34.86,47a.28.28,0,0,1-.21.33h0a4.07,4.07,0,0,1-1,.12A1.93,1.93,0,0,1,32,46.84a2.79,2.79,0,0,1-1.84.62,2.7,2.7,0,0,1-2-.8,3.19,3.19,0,0,1,0-4.16,2.74,2.74,0,0,1,2-.79,2.18,2.18,0,0,1,1.54.53v0a.26.26,0,0,1,.3-.29h1.6a.25.25,0,0,1,.29.29v2.89a.7.7,0,0,0,.07.37.28.28,0,0,0,.24.1h.2c.19,0,.3.08.32.25Zm-4.28-1.22a1,1,0,0,0,.76-.32,1.52,1.52,0,0,0,0-1.77,1,1,0,0,0-.76-.33,1,1,0,0,0-.75.34,1.52,1.52,0,0,0,0,1.75.94.94,0,0,0,.75.33Z"/><path id="Trazado_10" data-name="Trazado 10" class="cls-2" d="M38,47.46a3.28,3.28,0,0,1-2.3-.79,2.94,2.94,0,0,1,0-4.15l0,0A3.72,3.72,0,0,1,40,42.3a2.32,2.32,0,0,1,1,1.58.23.23,0,0,1-.06.22.29.29,0,0,1-.23.08h-1.4a.38.38,0,0,1-.35-.25.92.92,0,0,0-.9-.52,1,1,0,0,0-.8.32,1.21,1.21,0,0,0-.31.85,1.17,1.17,0,0,0,.31.86,1.06,1.06,0,0,0,.8.33.9.9,0,0,0,.9-.54.41.41,0,0,1,.35-.24h1.4a.38.38,0,0,1,.23.08.23.23,0,0,1,.06.22,2.32,2.32,0,0,1-1,1.58A3.22,3.22,0,0,1,38,47.46Z"/><path id="Trazado_11" data-name="Trazado 11" class="cls-2" d="M42.54,41.31a1.25,1.25,0,0,1-.92-.33,1.2,1.2,0,0,1,0-1.69h0a1.39,1.39,0,0,1,1.83,0,1.17,1.17,0,0,1,0,1.67l0,0A1.31,1.31,0,0,1,42.54,41.31Zm-.84,5.95a.27.27,0,0,1-.3-.3V42.2c0-.19.1-.28.3-.28h1.68c.2,0,.3.09.3.28V47a.27.27,0,0,1-.3.3Z"/><path id="Trazado_12" data-name="Trazado 12" class="cls-2" d="M47.17,47.46a3.24,3.24,0,0,1-2.29-.79,3,3,0,0,1,0-4.17,3.73,3.73,0,0,1,4.59,0,2.94,2.94,0,0,1,0,4.15l0,0A3.28,3.28,0,0,1,47.17,47.46Zm0-1.78a1.07,1.07,0,0,0,.81-.3,1.17,1.17,0,0,0,0-1.6,1.12,1.12,0,1,0-.81,1.9Zm-.7-4.52a.23.23,0,0,1-.22-.1.25.25,0,0,1,0-.24L47,39.5a.35.35,0,0,1,.34-.21h1.64a.22.22,0,0,1,.23.1.24.24,0,0,1,0,.24L48.21,41a.39.39,0,0,1-.35.18Z"/><path id="Trazado_13" data-name="Trazado 13" class="cls-2" d="M54.92,41.71a2.29,2.29,0,0,1,1.68.62A2.15,2.15,0,0,1,57.23,44v3a.26.26,0,0,1-.3.29H55.24a.35.35,0,0,1-.22-.08.3.3,0,0,1-.09-.21v-2.5a.92.92,0,0,0-.18-.62.81.81,0,0,0-1.09,0,.82.82,0,0,0-.19.6V47c0,.2-.1.29-.3.29H51.48c-.2,0-.3-.09-.3-.29V44.07a.61.61,0,0,0-.07-.35.3.3,0,0,0-.27-.09h-.11c-.21,0-.31-.07-.31-.24v-1.2a.31.31,0,0,1,.23-.32,2.45,2.45,0,0,1,1-.17,1.67,1.67,0,0,1,1.46.67A2.34,2.34,0,0,1,54.92,41.71Z"/></g><g id="Grupo_3" data-name="Grupo 3"><path id="Trazado_14" data-name="Trazado 14" class="cls-2" d="M58.42,41.92a2.6,2.6,0,0,1,1.95.77,2.76,2.76,0,0,1,0,3.86,2.66,2.66,0,0,1-1.95.77,2.26,2.26,0,0,1-1.84-.87v3a.11.11,0,0,1-.09.13H55.8a.11.11,0,0,1-.13-.1,0,0,0,0,1,0,0V43.32q0-.6-.51-.6a2.35,2.35,0,0,0-.37.05c-.1,0-.15,0-.15-.11v-.5a.14.14,0,0,1,.11-.15,1.72,1.72,0,0,1,.6-.1,1.13,1.13,0,0,1,.75.25,1.11,1.11,0,0,1,.38.68A2.35,2.35,0,0,1,58.42,41.92Zm0,4.63A1.72,1.72,0,0,0,59.71,46a2.05,2.05,0,0,0,0-2.76,1.73,1.73,0,0,0-1.31-.56,1.68,1.68,0,0,0-1.29.56,2.08,2.08,0,0,0,0,2.76A1.7,1.7,0,0,0,58.4,46.55Z"/><path id="Trazado_15" data-name="Trazado 15" class="cls-2" d="M68.53,47.06a.14.14,0,0,1-.1.15h0a2,2,0,0,1-.64.11,1,1,0,0,1-1.16-.91,2.44,2.44,0,0,1-1.94.91,2.7,2.7,0,0,1-2-.77,2.77,2.77,0,0,1,0-3.86,2.66,2.66,0,0,1,2-.77,2.3,2.3,0,0,1,1.82.84V42.2a.12.12,0,0,1,.1-.13h.7a.11.11,0,0,1,.13.1v3.76c0,.38.15.58.45.58a3.27,3.27,0,0,0,.44,0,.11.11,0,0,1,.14.05.07.07,0,0,1,0,0Zm-3.83-.51A1.66,1.66,0,0,0,66,46a2,2,0,0,0,.52-1.39A2,2,0,0,0,66,43.24a1.68,1.68,0,0,0-1.29-.56,1.74,1.74,0,0,0-1.32.56,2.08,2.08,0,0,0,0,2.76A1.73,1.73,0,0,0,64.7,46.55Z"/><path id="Trazado_16" data-name="Trazado 16" class="cls-2" d="M73.51,42.06a.11.11,0,0,1,.1.13v0l-.09.54a.12.12,0,0,1-.16.1,2.26,2.26,0,0,0-.73-.1,1.64,1.64,0,0,0-1.28.53,1.93,1.93,0,0,0-.5,1.38V47a.11.11,0,0,1-.09.13h-.69a.11.11,0,0,1-.13-.1V43.32q0-.6-.51-.6a2.35,2.35,0,0,0-.37.05c-.1,0-.15,0-.15-.11v-.5A.15.15,0,0,1,69,42a1.76,1.76,0,0,1,.6-.1,1.19,1.19,0,0,1,.77.25,1.11,1.11,0,0,1,.36.71,2.2,2.2,0,0,1,1.88-1A2.49,2.49,0,0,1,73.51,42.06Z"/><path id="Trazado_17" data-name="Trazado 17" class="cls-2" d="M80.5,47.06a.13.13,0,0,1-.1.15h0a2.06,2.06,0,0,1-.65.11,1,1,0,0,1-1.15-.91,2.45,2.45,0,0,1-1.94.91,2.74,2.74,0,0,1-2-.77,2.77,2.77,0,0,1,0-3.86,2.63,2.63,0,0,1,2-.77,2.33,2.33,0,0,1,1.82.84V42.2a.11.11,0,0,1,.1-.13h.7a.11.11,0,0,1,.13.1v3.76c0,.38.15.58.45.58a3,3,0,0,0,.43,0,.1.1,0,0,1,.14.05.07.07,0,0,1,0,0Zm-3.83-.51A1.66,1.66,0,0,0,78,46a2,2,0,0,0,.52-1.39A1.91,1.91,0,0,0,78,43.24a1.68,1.68,0,0,0-1.29-.56,1.74,1.74,0,0,0-1.32.56,2.08,2.08,0,0,0,0,2.76,1.7,1.7,0,0,0,1.32.55Z"/><path id="Trazado_18" data-name="Trazado 18" class="cls-2" d="M87.93,42.06a.12.12,0,0,1,.11.13v0l-.08.54a.13.13,0,0,1-.17.1,2.22,2.22,0,0,0-.73-.1,1.62,1.62,0,0,0-1.27.53,1.93,1.93,0,0,0-.5,1.38V47a.12.12,0,0,1-.1.13h-.69a.12.12,0,0,1-.13-.1V43.32q0-.6-.51-.6a2.23,2.23,0,0,0-.36.05c-.1,0-.15,0-.15-.11v-.5a.13.13,0,0,1,.1-.15,1.8,1.8,0,0,1,.6-.1,1.17,1.17,0,0,1,.77.25,1.12,1.12,0,0,1,.37.71,2.18,2.18,0,0,1,1.87-1A2.41,2.41,0,0,1,87.93,42.06Z"/><path id="Trazado_19" data-name="Trazado 19" class="cls-2" d="M91.12,47.32a2.83,2.83,0,0,1-2-.74,2.62,2.62,0,0,1-.77-2,2.67,2.67,0,0,1,.76-2,2.71,2.71,0,0,1,2-.75,2.59,2.59,0,0,1,1.92.75,2.71,2.71,0,0,1,.72,2v.14a.82.82,0,0,0,0,.14.11.11,0,0,1-.13.1h-4.3a1.83,1.83,0,0,0,.62,1.15,1.86,1.86,0,0,0,1.25.44A1.52,1.52,0,0,0,92.5,46a.25.25,0,0,1,.16-.08h.71c.12,0,.16.05.11.15a2,2,0,0,1-.9.93A3,3,0,0,1,91.12,47.32Zm-1.88-3h3.53a1.78,1.78,0,0,0-.48-1.18,1.56,1.56,0,0,0-1.21-.48,1.86,1.86,0,0,0-1.27.46,1.8,1.8,0,0,0-.57,1.21Z"/><path id="Trazado_20" data-name="Trazado 20" class="cls-2" d="M95.59,47.17a.11.11,0,0,1-.13-.1V42.81h-1.4a.11.11,0,0,1-.13-.09V42.2a.11.11,0,0,1,.1-.13h1.43V41A1.92,1.92,0,0,1,96,39.56,2.08,2.08,0,0,1,97.51,39a3.57,3.57,0,0,1,1.17.17.12.12,0,0,1,.1.14h0l-.09.51c0,.09-.08.12-.16.1a3.06,3.06,0,0,0-.9-.13,1.27,1.27,0,0,0-.91.31,1.08,1.08,0,0,0-.34.84v1.08h2a.11.11,0,0,1,.13.1v.52a.1.1,0,0,1-.09.12h-2v4.24a.11.11,0,0,1-.1.12h-.69Z"/><path id="Trazado_21" data-name="Trazado 21" class="cls-2" d="M105,47.06a.13.13,0,0,1-.1.15h0a2.17,2.17,0,0,1-.66.11,1.1,1.1,0,0,1-1.2-.83,2.36,2.36,0,0,1-1.94.83,2.19,2.19,0,0,1-1.66-.64A2.29,2.29,0,0,1,98.8,45V42.2a.11.11,0,0,1,.1-.13h.69a.11.11,0,0,1,.13.1V45a1.57,1.57,0,0,0,.41,1.15,1.5,1.5,0,0,0,1.12.42,1.6,1.6,0,0,0,1.22-.48,1.65,1.65,0,0,0,.48-1.24V42.2a.12.12,0,0,1,.1-.13h.69a.11.11,0,0,1,.13.1v3.75c0,.4.15.59.46.59a1.93,1.93,0,0,0,.42,0c.1,0,.15,0,.17.1Z"/><path id="Trazado_22" data-name="Trazado 22" class="cls-2" d="M109.19,41.92a2.19,2.19,0,0,1,1.66.64,2.3,2.3,0,0,1,.62,1.68V47c0,.09,0,.13-.14.13h-.66a.11.11,0,0,1-.12-.1,0,0,0,0,1,0,0V44.28a1.56,1.56,0,0,0-.42-1.14,1.46,1.46,0,0,0-1.12-.42,1.63,1.63,0,0,0-1.7,1.56V47a.11.11,0,0,1-.09.13h-.69a.11.11,0,0,1-.13-.1V43.32c0-.4-.17-.59-.51-.59a1.55,1.55,0,0,0-.37,0c-.1,0-.15,0-.15-.11v-.5a.14.14,0,0,1,.11-.15,1.72,1.72,0,0,1,.6-.1,1.15,1.15,0,0,1,.74.24,1.06,1.06,0,0,1,.38.66A2.35,2.35,0,0,1,109.19,41.92Z"/><path id="Trazado_23" data-name="Trazado 23" class="cls-2" d="M118.94,47.06a.13.13,0,0,1-.1.15h0a2.06,2.06,0,0,1-.65.11,1,1,0,0,1-1.16-.91h0a2.39,2.39,0,0,1-1.94.92,2.7,2.7,0,0,1-2-.77,2.77,2.77,0,0,1,0-3.86,2.66,2.66,0,0,1,2-.77,2.29,2.29,0,0,1,1.82.83V39.32a.11.11,0,0,1,.09-.13h.7a.11.11,0,0,1,.13.09v6.64c0,.39.16.59.47.59a2,2,0,0,0,.42,0c.09,0,.15,0,.16.1Zm-3.83-.51A1.66,1.66,0,0,0,116.4,46a2.1,2.1,0,0,0,0-2.77,1.68,1.68,0,0,0-1.29-.56,1.74,1.74,0,0,0-1.32.56,2.08,2.08,0,0,0,0,2.76,1.78,1.78,0,0,0,1.32.56Z"/><path id="Trazado_24" data-name="Trazado 24" class="cls-2" d="M126.11,47.06a.13.13,0,0,1-.1.15h0a2.06,2.06,0,0,1-.65.11,1,1,0,0,1-1.15-.91,2.45,2.45,0,0,1-1.94.91,2.74,2.74,0,0,1-2-.77,2.77,2.77,0,0,1,0-3.86,2.63,2.63,0,0,1,2-.77,2.33,2.33,0,0,1,1.82.84V42.2a.11.11,0,0,1,.1-.13h.7a.11.11,0,0,1,.13.09v3.77c0,.38.15.58.45.58a3,3,0,0,0,.43,0,.1.1,0,0,1,.14.05.07.07,0,0,1,0,0Zm-3.83-.51a1.66,1.66,0,0,0,1.29-.54,2,2,0,0,0,.52-1.39,1.91,1.91,0,0,0-.52-1.38,1.68,1.68,0,0,0-1.29-.56,1.74,1.74,0,0,0-1.32.56A2.08,2.08,0,0,0,121,46a1.73,1.73,0,0,0,1.32.55Z"/><path id="Trazado_25" data-name="Trazado 25" class="cls-2" d="M131.09,42.06a.11.11,0,0,1,.11.13v0l-.08.54a.12.12,0,0,1-.16.1,2.32,2.32,0,0,0-.74-.1,1.62,1.62,0,0,0-1.27.53,1.93,1.93,0,0,0-.5,1.38V47a.12.12,0,0,1-.1.13h-.69a.12.12,0,0,1-.13-.1V43.32c0-.4-.17-.6-.5-.6a2.2,2.2,0,0,0-.37.05c-.1,0-.15,0-.15-.11v-.5a.14.14,0,0,1,.11-.15,1.72,1.72,0,0,1,.6-.1,1.19,1.19,0,0,1,.77.25,1.16,1.16,0,0,1,.36.71,2.2,2.2,0,0,1,1.88-1A2.4,2.4,0,0,1,131.09,42.06Z"/><path id="Trazado_26" data-name="Trazado 26" class="cls-2" d="M134.27,47.17c-.08,0-.11,0-.11-.12v-.27a.16.16,0,0,1,.05-.14l3-3.14a2.83,2.83,0,0,0,1-1.88,1.23,1.23,0,0,0-.45-1,1.78,1.78,0,0,0-1.18-.38,1.85,1.85,0,0,0-1.13.35,1.41,1.41,0,0,0-.56.95.14.14,0,0,1-.14.12h-.69a.13.13,0,0,1-.13-.1v0a2.07,2.07,0,0,1,.8-1.5,2.85,2.85,0,0,1,1.82-.56,2.94,2.94,0,0,1,1.88.58,1.92,1.92,0,0,1,.73,1.59A3.48,3.48,0,0,1,138,43.91l-2.38,2.51h3.59a.11.11,0,0,1,.13.1V47a.11.11,0,0,1-.09.13h-4.93Z"/><path id="Trazado_27" data-name="Trazado 27" class="cls-2" d="M140.91,40.28a3.4,3.4,0,0,1,4.42,0,2.84,2.84,0,0,1,.83,2.15v1.92a2.85,2.85,0,0,1-.83,2.16,3.42,3.42,0,0,1-4.42,0,2.85,2.85,0,0,1-.84-2.16V42.43A2.85,2.85,0,0,1,140.91,40.28Zm4.29,4.07V42.43a2.15,2.15,0,0,0-.57-1.56,2.22,2.22,0,0,0-3,0,2.11,2.11,0,0,0-.58,1.56v1.92a2.12,2.12,0,0,0,.58,1.57,2.22,2.22,0,0,0,3,0,2.17,2.17,0,0,0,.57-1.57Z"/><path id="Trazado_28" data-name="Trazado 28" class="cls-2" d="M153.07,44.81a.11.11,0,0,1,.13.09v.56a.11.11,0,0,1-.1.12,0,0,0,0,1,0,0H152V47a.12.12,0,0,1-.1.13h-.7a.12.12,0,0,1-.13-.1V45.58h-4c-.08,0-.12,0-.12-.1v-.37a.37.37,0,0,1,0-.15l3.55-5.24a.18.18,0,0,1,.15-.1h1.21a.11.11,0,0,1,.13.09V44.8Zm-5,0h3V40.37Z"/><path id="Trazado_29" data-name="Trazado 29" class="cls-2" d="M154.75,40.28a3.4,3.4,0,0,1,4.42,0,2.88,2.88,0,0,1,.84,2.15v1.92a2.89,2.89,0,0,1-.84,2.16,3.42,3.42,0,0,1-4.42,0,2.89,2.89,0,0,1-.84-2.16V42.43A2.88,2.88,0,0,1,154.75,40.28Zm4.3,4.07V42.43a2.15,2.15,0,0,0-.58-1.56,2.22,2.22,0,0,0-3,0,2.11,2.11,0,0,0-.58,1.56v1.92a2.12,2.12,0,0,0,.58,1.57,2.09,2.09,0,0,0,3.6-1.57Z"/></g><g id="Grupo_4" data-name="Grupo 4"><path id="Trazado_30" data-name="Trazado 30" class="cls-2" d="M71.13,34.56A11.18,11.18,0,0,1,63,31.64a10.26,10.26,0,0,1-3-7.74A13.57,13.57,0,0,1,64.2,13.63a14.85,14.85,0,0,1,10.66-4,11.35,11.35,0,0,1,7.08,2.12,8.05,8.05,0,0,1,3.19,5.85c.07.43-.13.65-.6.65H81.4a.53.53,0,0,1-.55-.5,4.87,4.87,0,0,0-2.12-3.27,7.65,7.65,0,0,0-4.41-1.22,9.76,9.76,0,0,0-7.2,2.89,10,10,0,0,0-2.86,7.33,7.43,7.43,0,0,0,2,5.43,7.2,7.2,0,0,0,5.43,2,9.33,9.33,0,0,0,4.76-1.22,7.3,7.3,0,0,0,3.06-3.21.71.71,0,0,1,.7-.5h3.19c.43,0,.57.21.4.65a11.38,11.38,0,0,1-4.86,5.8A14.67,14.67,0,0,1,71.13,34.56Z"/><path id="Trazado_31" data-name="Trazado 31" class="cls-2" d="M107.55,10.25a.49.49,0,0,1,.38.59l0,.11-.75,2.49a.67.67,0,0,1-.81.46h0a10.12,10.12,0,0,0-3.28-.45,9,9,0,0,0-6.26,2.44,10.46,10.46,0,0,0-3.26,6.38l-1.64,11a.65.65,0,0,1-.68.6H88.12c-.44,0-.62-.2-.55-.6l2.59-17.19c.23-1.83-.42-2.74-1.94-2.74a9.74,9.74,0,0,0-1.7.2.67.67,0,0,1-.5-.08.37.37,0,0,1-.15-.42l.35-2.29a.73.73,0,0,1,.55-.7,9.43,9.43,0,0,1,2.89-.45,4.68,4.68,0,0,1,3.39,1.15A4.33,4.33,0,0,1,94.25,14a11.68,11.68,0,0,1,9.31-4.43A12,12,0,0,1,107.55,10.25Z"/><path id="Trazado_32" data-name="Trazado 32" class="cls-2" d="M116,34.56a11.2,11.2,0,0,1-8.12-2.92,10.2,10.2,0,0,1-3-7.74A13.68,13.68,0,0,1,109,13.63a14.5,14.5,0,0,1,10.47-4,10.07,10.07,0,0,1,7.9,3.11,10.85,10.85,0,0,1,2.56,8.15,14,14,0,0,1-.4,2.49.63.63,0,0,1-.65.45H109a7,7,0,0,0,2,5.28,7.43,7.43,0,0,0,5.46,2q4.53,0,6.77-2.79a1.11,1.11,0,0,1,.8-.35h3.29c.46,0,.6.24.4.7A11.92,11.92,0,0,1,122.92,33,15.23,15.23,0,0,1,116,34.56Zm-6.63-13.85h16.29a6.82,6.82,0,0,0-1.34-5.46A6.37,6.37,0,0,0,119,13,9.94,9.94,0,0,0,109.34,20.71Z"/><path id="Trazado_33" data-name="Trazado 33" class="cls-2" d="M158.91,30.62c.44-.1.65.05.65.45l-.05,2.29a.66.66,0,0,1-.54.7,10.51,10.51,0,0,1-3.09.5,4.93,4.93,0,0,1-3.42-1.1,4.11,4.11,0,0,1-1.27-3.09,12.88,12.88,0,0,1-9.61,4.19,10.69,10.69,0,0,1-7.92-3,10.46,10.46,0,0,1-3-7.77,13.28,13.28,0,0,1,4.33-10A14.51,14.51,0,0,1,145.31,9.6a9,9,0,0,1,7.83,3.88l.4-2.59a.64.64,0,0,1,.67-.6h3.07q.54,0,.54.6l-2.59,17.24c-.26,1.8.32,2.69,1.75,2.69A9.58,9.58,0,0,0,158.91,30.62Zm-16.73.4a9.29,9.29,0,0,0,6.89-3A9.92,9.92,0,0,0,152,20.81a7.85,7.85,0,0,0-2-5.51,6.72,6.72,0,0,0-5.18-2.16,9.46,9.46,0,0,0-7,3,10,10,0,0,0-2.94,7.23,7.75,7.75,0,0,0,2,5.5A6.85,6.85,0,0,0,142.17,31Z"/></g></g></svg>