<svg id="Capa_1" data-name="Capa 1" xmlns="http://www.w3.org/2000/svg" viewBox="0 0 88.33 88.33"><defs><style>.cls-1{fill:#fff;}.cls-2{fill:#67737a;}</style></defs><title>SEJ enventos</title><g id="Grupo_1086" data-name="Grupo 1086"><rect id="Rectángulo_31" data-name="Rectángulo 31" class="cls-1" x="7.37" y="7.37" width="73.59" height="73.59" rx="19" transform="translate(-18.29 44.17) rotate(-45)"/><g id="Grupo_19" data-name="Grupo 19"><path id="Trazado_46" data-name="Trazado 46" class="cls-2" d="M37,55.55a.22.22,0,0,1-.17.26,3,3,0,0,1-1,.17,1.67,1.67,0,0,1-1.68-.9,3.52,3.52,0,0,1-2.39.9A3.69,3.69,0,0,1,29,49.64a3.87,3.87,0,0,1,2.76-1,3.39,3.39,0,0,1,2,.64V49a.21.21,0,0,1,.16-.22h1.38a.19.19,0,0,1,.22.17v4.92a.52.52,0,0,0,.14.39.5.5,0,0,0,.37.14,2.33,2.33,0,0,0,.53-.06c.16,0,.25,0,.26.18Zm-5.21-1a1.87,1.87,0,0,0,1.47-.63,2.6,2.6,0,0,0,0-3.23,1.87,1.87,0,0,0-1.47-.63,2,2,0,0,0-1.5.63,2.52,2.52,0,0,0,0,3.23,2,2,0,0,0,1.5.63"/><path id="Trazado_47" data-name="Trazado 47" class="cls-2" d="M40.06,56a2.26,2.26,0,0,1-1.47-.44A1.42,1.42,0,0,1,38,54.38V45.74a.19.19,0,0,1,.16-.21h1.39a.19.19,0,0,1,.22.16V53.9a.56.56,0,0,0,.13.39.48.48,0,0,0,.37.14,3.29,3.29,0,0,0,.54,0c.15,0,.24,0,.26.17l.12,1a.23.23,0,0,1-.18.26,3.26,3.26,0,0,1-1,.18"/><path id="Trazado_48" data-name="Trazado 48" class="cls-2" d="M43.13,47.3a1.12,1.12,0,0,1-.78-.3,1,1,0,0,1-.07-1.37.46.46,0,0,1,.07-.07,1.12,1.12,0,0,1,.78-.3,1.16,1.16,0,0,1,.77.3A1,1,0,0,1,44,46.91L43.9,47a1.16,1.16,0,0,1-.77.3M44.27,56a2.28,2.28,0,0,1-1.47-.44,1.43,1.43,0,0,1-.56-1.16V49a.19.19,0,0,1,.17-.22h1.38A.19.19,0,0,1,44,49V53.9a.52.52,0,0,0,.14.39.46.46,0,0,0,.37.14,2.33,2.33,0,0,0,.53-.06c.16,0,.24,0,.26.18l.12,1a.23.23,0,0,1-.18.26,2.93,2.93,0,0,1-1,.17"/><path id="Trazado_49" data-name="Trazado 49" class="cls-2" d="M49.4,56a4.26,4.26,0,0,1-2.39-.6A2.4,2.4,0,0,1,46,53.68c0-.15,0-.23.22-.23h1.21a.23.23,0,0,1,.23.19c.22.65.81,1,1.78,1a2.1,2.1,0,0,0,1-.21.63.63,0,0,0,.35-.81.61.61,0,0,0-.44-.37,4.62,4.62,0,0,0-1.15-.29,12.69,12.69,0,0,1-1.35-.23,2.34,2.34,0,0,1-1.15-.61,1.74,1.74,0,0,1-.47-1.3A1.88,1.88,0,0,1,47,49.2a3.68,3.68,0,0,1,2.21-.6,3.84,3.84,0,0,1,2.14.56,2.11,2.11,0,0,1,1,1.49c0,.16-.06.23-.22.23H51c-.12,0-.2,0-.23-.13a1.15,1.15,0,0,0-.54-.63,2,2,0,0,0-1-.24,2.08,2.08,0,0,0-1,.2.61.61,0,0,0-.35.54.67.67,0,0,0,.34.59,1.9,1.9,0,0,0,.84.28c.33,0,.7.1,1.09.18a7.94,7.94,0,0,1,1.09.29,1.68,1.68,0,0,1,.84.62,1.79,1.79,0,0,1,.34,1.14,1.93,1.93,0,0,1-.85,1.63A3.79,3.79,0,0,1,49.4,56"/><path id="Trazado_50" data-name="Trazado 50" class="cls-2" d="M57.23,56a3.85,3.85,0,0,1-2.8-1,3.92,3.92,0,0,1,0-5.36,4.36,4.36,0,0,1,5.12-.33,2.9,2.9,0,0,1,1.18,1.81c0,.16,0,.23-.19.23H59.17a.22.22,0,0,1-.24-.19,1.41,1.41,0,0,0-.62-.74,2.05,2.05,0,0,0-1.08-.28,2,2,0,0,0-1.52.6,2.49,2.49,0,0,0,0,3.17,2,2,0,0,0,1.52.6,2.05,2.05,0,0,0,1.08-.28,1.39,1.39,0,0,0,.62-.75.24.24,0,0,1,.24-.19h1.37c.16,0,.22.08.19.23a2.84,2.84,0,0,1-1.18,1.81,3.85,3.85,0,0,1-2.32.68"/><path id="Trazado_51" data-name="Trazado 51" class="cls-2" d="M68.28,55a4.38,4.38,0,0,1-5.6,0,3.89,3.89,0,0,1,0-5.35,4.38,4.38,0,0,1,5.6,0,3.89,3.89,0,0,1,0,5.35M64,53.87a2.25,2.25,0,0,0,3,0,2.44,2.44,0,0,0,0-3.15,2.25,2.25,0,0,0-3,0,2.44,2.44,0,0,0,0,3.15"/><path id="Trazado_52" data-name="Trazado 52" class="cls-2" d="M26.55,45.64a.21.21,0,0,1,.22.21v6.26A3.78,3.78,0,0,1,25.7,55a4.71,4.71,0,0,1-5.64.17,3.26,3.26,0,0,1-1.2-2.27c0-.16.06-.23.22-.23H20.5a.2.2,0,0,1,.22.18v0a1.66,1.66,0,0,0,.68,1.11,2.41,2.41,0,0,0,1.45.42,1.9,1.9,0,0,0,1.49-.64A2.41,2.41,0,0,0,24.9,52V47.7c0-.58-.62-.71-1-.73h-.11a.18.18,0,0,1-.18-.18v-1a.18.18,0,0,1,.18-.17Z"/><path id="Trazado_53" data-name="Trazado 53" class="cls-2" d="M23.57,59.65a1,1,0,0,1,1,.72h-.38a.65.65,0,0,0-.66-.37.83.83,0,0,0,0,1.66.65.65,0,0,0,.74-.56v0h-.72v-.33h1.08A1.09,1.09,0,0,1,23.78,62l-.21,0a1.18,1.18,0,0,1,0-2.36"/><path id="Trazado_54" data-name="Trazado 54" class="cls-2" d="M26.4,62a1.18,1.18,0,1,1,1.17-1.18h0A1.11,1.11,0,0,1,26.51,62H26.4m0-.36a.82.82,0,1,0-.79-.86v0a.77.77,0,0,0,.69.82h.1"/><path id="Trazado_55" data-name="Trazado 55" class="cls-2" d="M29.68,60.78a.51.51,0,0,1,.37.54.64.64,0,0,1-.62.66H28.3v-2.3h.93a.64.64,0,0,1,.72.55.34.34,0,0,1,0,.1.46.46,0,0,1-.27.45m-1-.77v.65h.52c.22,0,.38-.09.38-.32S29.43,60,29.2,60Zm0,1v.67h.62a.32.32,0,0,0,.37-.29s0,0,0,0a.36.36,0,0,0-.12-.27.53.53,0,0,0-.3-.07Z"/><path id="Trazado_56" data-name="Trazado 56" class="cls-2" d="M31.74,61.67V62H30.63v-.31H31V60h-.33v-.31h1.05V60h-.34v1.68Z"/><path id="Trazado_57" data-name="Trazado 57" class="cls-2" d="M33.84,60h-1v.61h1V61h-1v.67h1V62H32.44v-2.3h1.4Z"/><path id="Trazado_58" data-name="Trazado 58" class="cls-2" d="M36.47,61.92V62h-.39l-.57-.8H35V62h-.39v-2.3h1a.74.74,0,0,1,.8.68v.07a.71.71,0,0,1-.48.69Zm-.9-1.06a.42.42,0,0,0,.43-.42.43.43,0,0,0-.42-.43H35v.85Z"/><path id="Trazado_59" data-name="Trazado 59" class="cls-2" d="M37.5,60.42l0,.73V62h-.38v-2.3h.14l1.4,1.55,0-.7v-.84H39V62h-.13Z"/><path id="Trazado_60" data-name="Trazado 60" class="cls-2" d="M40.92,62a1.18,1.18,0,1,1,1.18-1.18h0A1.12,1.12,0,0,1,41,62h-.12m0-.36a.83.83,0,0,0,.86-.79.82.82,0,0,0-1.64-.07v0a.76.76,0,0,0,.69.82h.09"/><path id="Trazado_61" data-name="Trazado 61" class="cls-2" d="M44.77,59.68a1.15,1.15,0,0,1,0,2.3h-.83v-2.3Zm0,2a.8.8,0,0,0,0-1.6h-.45v1.6Z"/><path id="Trazado_62" data-name="Trazado 62" class="cls-2" d="M48,60H47v.61h1V61H47v.67h1V62H46.62v-2.3H48Z"/><path id="Trazado_63" data-name="Trazado 63" class="cls-2" d="M49.18,61.63h1V62H48.8v-2.3h.39Z"/><path id="Trazado_64" data-name="Trazado 64" class="cls-2" d="M53.21,60h-1v.61h1V61h-1v.67h1V62H51.81v-2.3h1.4Z"/><path id="Trazado_65" data-name="Trazado 65" class="cls-2" d="M54.2,61.33c0,.26.3.34.55.34s.53-.06.53-.35S55,61,54.71,61c-.42,0-.84-.17-.84-.63s.42-.68.86-.68.85.2.86.67h-.35c0-.25-.28-.33-.51-.33s-.48.08-.48.34.26.29.52.32c.47.06.89.15.89.68s-.47.68-.9.68-.92-.2-.93-.68Z"/><path id="Trazado_66" data-name="Trazado 66" class="cls-2" d="M56.15,60v-.34h1.7V60h-.66v2h-.38V60Z"/><path id="Trazado_67" data-name="Trazado 67" class="cls-2" d="M58.65,61.5l-.22.48H58v0l1.07-2.27h.17l1.06,2.27v0h-.4l-.23-.48Zm.13-.32h.8l-.4-.92Z"/><path id="Trazado_68" data-name="Trazado 68" class="cls-2" d="M61.75,59.68a1.15,1.15,0,0,1,0,2.3h-.83v-2.3Zm0,2a.8.8,0,0,0,0-1.6h-.45v1.6Z"/><path id="Trazado_69" data-name="Trazado 69" class="cls-2" d="M64.62,62a1.18,1.18,0,1,1,1.18-1.18h0A1.12,1.12,0,0,1,64.74,62h-.12m0-.36a.82.82,0,1,0-.79-.86v0a.77.77,0,0,0,.7.82h.09"/><path id="Trazado_70" data-name="Trazado 70" class="cls-2" d="M43.86,17.82v1.27a1.1,1.1,0,0,1,.51,0h0V17.82a.89.89,0,0,0-.51,0"/><path id="Trazado_71" data-name="Trazado 71" class="cls-2" d="M38.55,18.15a.26.26,0,0,0,.13.19,4.08,4.08,0,0,0,1.68.38,3.93,3.93,0,0,0,2.19-.7,3,3,0,0,1,3.11-.13,1.14,1.14,0,0,1-.82.31h-.2v.45h.2a1.54,1.54,0,0,0,1.35-.7h0a.23.23,0,0,0,0-.11V15.15a.22.22,0,0,0-.1-.18,3.46,3.46,0,0,0-3.83,0,3.37,3.37,0,0,1-3.42.28.23.23,0,0,0-.25.37l1.47,1.27L38.64,18a.21.21,0,0,0-.09.2m2-1.08a.21.21,0,0,0,.05-.31l0,0L39.74,16a3.82,3.82,0,0,0,2.8-.65,3,3,0,0,1,3.23-.07v2.17a3.49,3.49,0,0,0-3.49.21,3.32,3.32,0,0,1-3.05.42Z"/><path id="Trazado_72" data-name="Trazado 72" class="cls-2" d="M43.86,16.71h.52v-.48h.48v-.52h-.48v-.48h-.52v.48h-.49v.52h.49Z"/><path id="Trazado_73" data-name="Trazado 73" class="cls-2" d="M55.08,35.27l.5-.58a11.25,11.25,0,0,0,1.83-2.54,4.5,4.5,0,0,0,.43-2.51,3.94,3.94,0,0,0-2.34-3.1,1.8,1.8,0,0,0,.25-1.16h0a.24.24,0,0,0-.27-.21.26.26,0,0,0-.15.07,1,1,0,0,1-1,.22h0a4.75,4.75,0,0,0-1.67-.31,5.34,5.34,0,0,0-.69.05v0a1.69,1.69,0,0,0-.08-.5.29.29,0,0,0-.15-.16.26.26,0,0,0-.21,0,.63.63,0,0,1-.33.09H51.1l-.36,0a4.41,4.41,0,0,0-.52,0,4,4,0,0,0-.5.11,3.9,3.9,0,0,0-.48.17,4.12,4.12,0,0,0-.85.52,3.89,3.89,0,0,0-.36.34,2.25,2.25,0,0,0-.21.24,1.51,1.51,0,0,0-.18.26c-.12.18-.22.36-.34.54l0,.06,0,0,0,0h0a.76.76,0,0,1-.11.14L47,27.2l-.2.21-.09.08-.15.13,0,0-.75-.52-.12-.72c0-.08.1-.16.14-.24l0,0,.06-.13,0,0a.61.61,0,0,1,0-.12v0a.08.08,0,0,0,0,0l.21-.05.17-1.22h0l-.23-.06a.45.45,0,0,0,0-.11l0-.15a1.92,1.92,0,0,0-.16-.42,0,0,0,0,0,0,0A1.55,1.55,0,0,0,45,23h0v0l0-.08a1.53,1.53,0,0,1,.7-.74,1.21,1.21,0,0,1,.08.22.21.21,0,0,0,.24.15.35.35,0,0,0,.17-.06,1,1,0,0,0,.22-.24,1.65,1.65,0,0,0,.11-1.54,1.08,1.08,0,0,0-.94-.68,1,1,0,0,0-.41.07,1.19,1.19,0,0,0-1.6-.55,1.15,1.15,0,0,0-.56.55,1,1,0,0,0-.41-.07,1.08,1.08,0,0,0-.94.68,1.65,1.65,0,0,0,.11,1.54.73.73,0,0,0,.22.24.35.35,0,0,0,.17.06.21.21,0,0,0,.24-.15,1.21,1.21,0,0,1,.08-.22,1.53,1.53,0,0,1,.7.74l0,.08s0,0,0,0h0a1.55,1.55,0,0,0-.88.77s0,0,0,0a1.92,1.92,0,0,0-.16.42l0,.15a.53.53,0,0,0,0,.12l-.23,0h0l.17,1.22.21.05,0,0,0,.05,0,.11v0l.06.13,0,0a1.88,1.88,0,0,0,.14.24l-.11.72-.76.52-.41-.38-.07-.08a3.25,3.25,0,0,1-.23-.29h0l0,0,0,0a.1.1,0,0,1,0-.05c-.12-.18-.22-.37-.34-.55s-.11-.17-.18-.25-.14-.16-.21-.24-.24-.23-.36-.34l-.41-.29L39,24.89a4.59,4.59,0,0,0-.48-.17,4,4,0,0,0-.5-.11,4.53,4.53,0,0,0-.52,0,2.3,2.3,0,0,0-.36,0h-.08a.59.59,0,0,1-.32-.09.26.26,0,0,0-.21,0,.25.25,0,0,0-.15.15,1.74,1.74,0,0,0-.08.5v.05a4.75,4.75,0,0,0-2.45.25h0a1,1,0,0,1-1-.22.24.24,0,0,0-.35,0,.27.27,0,0,0-.07.14h0a1.9,1.9,0,0,0,.26,1.16,4,4,0,0,0-2.35,3.1,4.45,4.45,0,0,0,.44,2.51,11,11,0,0,0,1.83,2.54l.5.58.17.2a2.91,2.91,0,0,1,.9,1.56.84.84,0,0,1-.75.91.43.43,0,0,1-.16,0,1,1,0,0,1-.35-.06l-.13,0h0a.56.56,0,0,0-.6.38l-.14,0a.47.47,0,0,0-.35.52v0a2.85,2.85,0,0,0,2.78,2.52h0a2.86,2.86,0,0,0,1.75-.61h0a.49.49,0,0,0,.63.06,3.09,3.09,0,0,0,.93-1h0l.05-.1a.22.22,0,0,1,0,.08l.1.17a7.42,7.42,0,0,0,10.32,1.8,7.5,7.5,0,0,0,1.8-1.8l.1-.17a.56.56,0,0,1,0-.08l.05.1h0a3.09,3.09,0,0,0,.93,1,.5.5,0,0,0,.64-.06h0a2.87,2.87,0,0,0,1.76.61h0A2.85,2.85,0,0,0,56.5,38.8v0a.47.47,0,0,0-.35-.52l-.14,0a.56.56,0,0,0-.6-.38h0l-.13,0a1.07,1.07,0,0,1-.35.06.83.83,0,0,1-.91-.75V37a2.85,2.85,0,0,1,.9-1.56l.17-.2m-2.46-9.65a4.29,4.29,0,0,1,1.5.28h0A1.35,1.35,0,0,0,55,26l.26-.08a1.33,1.33,0,0,1-.21.49,8,8,0,0,0-1-.12,3.52,3.52,0,0,0-3,1.68.54.54,0,0,0-.53-.38H49.09a4.23,4.23,0,0,1,3.55-1.93m.51,6.06a.36.36,0,0,0,0,.11,1.45,1.45,0,0,0,1.41.92h.06c-1.07,1.09-2.56,1.67-3.58,2.8v-3.9l.11-.1c.29-.3.55-.63.85-.93a2.87,2.87,0,0,1,1.59-.9,1.2,1.2,0,0,1,.75.09.67.67,0,0,1,.29.31.69.69,0,0,1-.13.77l-.07,0a.66.66,0,0,1-.34.12.58.58,0,0,1-.23,0,.57.57,0,0,0-.29,0,.55.55,0,0,0-.37.2.54.54,0,0,0-.09.52m-7.27-6.81-.05.43h0l-.24.05-.22,0v-.65l.29.07.23.05m-1.75,1.29h0l1.25-.27h0a2.61,2.61,0,0,1-.17.28c0,.07-.09.13-.13.19a1.13,1.13,0,0,1-1.55.36,1.1,1.1,0,0,1-.35-.36,1.33,1.33,0,0,1-.14-.19,2.61,2.61,0,0,1-.17-.28h0Zm-.73-.66v-.87l.5-.11v1.08Zm1,.1V24.5l.5.12v.87Zm-1.63-4a1,1,0,0,1,.36-.34,1.53,1.53,0,0,0-.94.46,1.21,1.21,0,0,1,0-.95.59.59,0,0,1,.5-.38,1,1,0,0,1,.5.12,1.49,1.49,0,0,1,.75,1,1.57,1.57,0,0,0-.31-1.11l-.13-.15a.7.7,0,0,1,1.32,0l-.13.15a1.58,1.58,0,0,0-.32,1.11,1.52,1.52,0,0,1,.75-1,1,1,0,0,1,.5-.12.6.6,0,0,1,.51.38,1.21,1.21,0,0,1,0,.95,1.53,1.53,0,0,0-.94-.46,1,1,0,0,1,.36.34,2.08,2.08,0,0,0-.93,1,.36.36,0,0,1,0,.09l0,.06a3.73,3.73,0,0,1-.4-.2h0a2.49,2.49,0,0,1-.4.2.14.14,0,0,0,0-.06l0-.09a2.08,2.08,0,0,0-.93-1m.72,1.77.34-.11a.4.4,0,0,1,.56-.09.2.2,0,0,1,.09.09l.34.11a1.25,1.25,0,0,1,.78.89C44.27,24,44.17,24,44.14,24h0l-1.43.34a1.26,1.26,0,0,1,.77-.89m-1,1.89h0l0-.43.23-.05.29-.07v.65l-.23,0ZM43,27.38l.07-.42,0,0a1.5,1.5,0,0,0,1,.43h0a1.5,1.5,0,0,0,1-.43l0,0,.07.43.82.57L46,28a4,4,0,0,1-1.12.44,2.46,2.46,0,0,1-.72.1,2.57,2.57,0,0,1-.62-.08,4,4,0,0,1-1.16-.43l-.17-.1ZM33.19,26a1.36,1.36,0,0,0,.82-.05h0a4.21,4.21,0,0,1,5,1.65H37.65a.55.55,0,0,0-.54.38,3.52,3.52,0,0,0-3-1.68,7.87,7.87,0,0,0-1,.12,1.32,1.32,0,0,1-.22-.5,1.14,1.14,0,0,0,.26.09m4.52,12.5s0,.07,0,.11v0a.51.51,0,0,0,0,.13h0a3.38,3.38,0,0,1-.17.54v0l0,.1,0,.06a2.51,2.51,0,0,1-.8.91A2.64,2.64,0,0,0,37,38.12h0a3.6,3.6,0,0,1-.47,1.52h0a2.39,2.39,0,0,1-2,1.19h0a2.37,2.37,0,0,1-2.29-2.09h0v0a1.73,1.73,0,0,0,2.39.51,1.76,1.76,0,0,0,.79-1.35,1.75,1.75,0,0,1-.76.87l0,0a1.88,1.88,0,0,1-.3.12,1.29,1.29,0,0,1-1.71-.62l.1,0,.24.08a2.06,2.06,0,0,0,.26,0,1,1,0,0,0,.24,0h.13l.08,0a1,1,0,0,0,.35-.12,1.27,1.27,0,0,0,.29-.21,1.18,1.18,0,0,0,.22-.28,1.48,1.48,0,0,0,.13-.35,1.75,1.75,0,0,0,.05-.4c0-.8-.7-1.51-1.18-2.08a14.46,14.46,0,0,1-2.26-3,4.1,4.1,0,0,1-.4-2.23,3.37,3.37,0,0,1,3.31-3,2.94,2.94,0,0,1,3,2.69v1.38h0A7,7,0,0,0,36,29.7a2.32,2.32,0,0,0-2.38-.38,1.27,1.27,0,0,0-.49,1.73l.06.1a1.18,1.18,0,0,0,1.3.42.91.91,0,0,1-1.17.56l-.15-.06L32.94,32a1.91,1.91,0,0,1-.66-.79,1.63,1.63,0,0,1-.13-.39,2,2,0,0,1,.17-1.19,2.38,2.38,0,0,1,1.42-1.18,2.81,2.81,0,0,1,2,.24l.24.16.2.17a2.17,2.17,0,0,0-1.87-1.07A2.57,2.57,0,0,0,31.68,31a4.9,4.9,0,0,0,1.3,2.1,21.09,21.09,0,0,1,2.52,3.42,3.07,3.07,0,0,1,.38,1.57,2.05,2.05,0,0,1-2,2.06h0a2.09,2.09,0,0,0,2.22-1.08c.94-1.74-.54-3.5-1.56-4.77L34,33.67l1.19.86c.24.18.48.35.72.55a6.56,6.56,0,0,1,1,.94,3.59,3.59,0,0,1,.82,2.44m-4.18-5.75h.06A1.46,1.46,0,0,0,35,31.8a.56.56,0,0,0,0-.12.57.57,0,0,0-.09-.52.53.53,0,0,0-.38-.2.55.55,0,0,0-.28,0,.63.63,0,0,1-.24,0,.66.66,0,0,1-.33-.12l-.07,0a.68.68,0,0,1,0-1,.61.61,0,0,1,.16-.12,1.2,1.2,0,0,1,.75-.08,2.81,2.81,0,0,1,1.59.9c.3.29.56.63.85.93l.1.1v3.9c-1-1.14-2.5-1.72-3.57-2.8M50,38.48v0a3.11,3.11,0,0,0,.06.44h0a5.68,5.68,0,0,1-.28.55l-.1.15a6.84,6.84,0,0,1-9.51,1.66,7.26,7.26,0,0,1-1.66-1.66l-.09-.15a5.77,5.77,0,0,1-.29-.55h0a2.24,2.24,0,0,0,.07-.44v0a3.84,3.84,0,0,0-.55-2.21h0V28.05h2.31l-.29-.49h0v0a4.7,4.7,0,0,0-2.85-2.27.86.86,0,0,1,0-.16v-.09a1.29,1.29,0,0,0,.39,0,1.83,1.83,0,0,1,.32,0h.07a3.17,3.17,0,0,1,.53.05,3.6,3.6,0,0,1,.95.34l.42.28a3.8,3.8,0,0,1,.37.33,4.23,4.23,0,0,1,.33.41c.12.17.22.35.34.53a3.57,3.57,0,0,0,.38.49l.3.31.16.14h0l.16.13,0,0,.16.11,0,0,.16.11h0a4.14,4.14,0,0,0,.72.38h0l.14.06.35.11a3.27,3.27,0,0,0,1.91,0l.35-.11.14-.06h0a4.14,4.14,0,0,0,.72-.38h0l.17-.11,0,0,.16-.11,0,0,.05,0h0l0,0,.06-.06h0l.13-.12,0,0,.3-.31.18-.22,0-.05a2.43,2.43,0,0,0,.14-.2l0,0a0,0,0,0,1,0,0,1.3,1.3,0,0,0,.1-.15l.23-.36a3.32,3.32,0,0,1,2.08-1.36,2.94,2.94,0,0,1,.51-.05h.08a1.83,1.83,0,0,1,.32,0,1.29,1.29,0,0,0,.39,0v.09a.66.66,0,0,1,0,.14,4.66,4.66,0,0,0-2.94,2.3v0h0l-.29.49h2.3v8.22a3.9,3.9,0,0,0-.55,2.21M53.5,37a1.75,1.75,0,0,0,0,.4,1.51,1.51,0,0,0,.14.35,1.46,1.46,0,0,0,.21.28,1.94,1.94,0,0,0,.29.21,1.45,1.45,0,0,0,.35.12l.09,0H55l.27,0,.23-.08.11-.05a1.28,1.28,0,0,1-1.71.63,1.14,1.14,0,0,1-.3-.13h0a1.72,1.72,0,0,1-.77-.87,1.74,1.74,0,0,0,1.84,1.62A1.72,1.72,0,0,0,56,38.75s0,0,0,0h0a2.4,2.4,0,0,1-2.29,2.09h0a2.37,2.37,0,0,1-2-1.19h0a3.76,3.76,0,0,1-.48-1.52h0a2.65,2.65,0,0,0,.39,2.25,2.6,2.6,0,0,1-.8-.91l0-.06-.05-.1v0a2.57,2.57,0,0,1-.16-.54h0a.69.69,0,0,1,0-.13v0a.43.43,0,0,0,0-.11A3.65,3.65,0,0,1,51.28,36a6.56,6.56,0,0,1,1-.94l.72-.55,1.19-.86-.53.62c-1,1.28-2.5,3-1.57,4.77a2.11,2.11,0,0,0,2.22,1.08h0a2.07,2.07,0,0,1-2-2.06,3.13,3.13,0,0,1,.38-1.56,21.23,21.23,0,0,1,2.53-3.43,5,5,0,0,0,1.3-2.1,2.59,2.59,0,0,0-2.63-3.08A2.22,2.22,0,0,0,52,29a1,1,0,0,1,.2-.16,1.32,1.32,0,0,1,.25-.16,2.7,2.7,0,0,1,2-.24,2.36,2.36,0,0,1,1.42,1.17,1.82,1.82,0,0,1,0,1.58,1.69,1.69,0,0,1-.17.29,1.33,1.33,0,0,1-.14.19,2,2,0,0,1-.35.31l-.22.11a.91.91,0,0,1-1.25-.36.61.61,0,0,1-.07-.14A1.18,1.18,0,0,0,55,31.15a1.27,1.27,0,0,0-.33-1.77l-.1-.06a2.32,2.32,0,0,0-2.38.38,7,7,0,0,0-1.14,1.11h0V29.43a2.94,2.94,0,0,1,3-2.69,3.37,3.37,0,0,1,3.3,3,4.08,4.08,0,0,1-.4,2.23,14.46,14.46,0,0,1-2.26,3c-.48.57-1.18,1.28-1.18,2.08"/><path id="Trazado_74" data-name="Trazado 74" class="cls-2" d="M45,36.57v-.08a.22.22,0,0,0-.23-.22V37l.83-.27a.8.8,0,0,0,.24.45.75.75,0,0,1,.21.34l-.61.26a1,1,0,0,0,0,.58,1,1,0,0,1-.43-.18v-.22a.22.22,0,0,0-.22-.22h0v.7a1.37,1.37,0,0,0,.7.24.22.22,0,0,1,.22.21.05.05,0,0,0,.06,0h0a1.1,1.1,0,0,0,0-.18.47.47,0,0,1,0-.17.59.59,0,0,1,.07-.29,1.17,1.17,0,0,1,.27,0l.24,0a.4.4,0,0,0,.15,0h.08a.84.84,0,0,0,.27,0s0,0,0,0,0,.05,0,.05a.47.47,0,0,1-.26.11h-.12l.17.41a1,1,0,0,0,.58,0,.92.92,0,0,1-.18.43h-.22a.22.22,0,0,0-.22.23h.7a1.37,1.37,0,0,0,.24-.7.21.21,0,0,1,.21-.21s0-.07-.06-.07h0a.57.57,0,0,0-.18,0l-.17,0a.72.72,0,0,1-.29-.06.86.86,0,0,1,0-.28,1,1,0,0,1,0-.24h0a0,0,0,0,0,0,0,.73.73,0,0,0,.88-.53.78.78,0,0,0,0-.5l-.07-.13a1.23,1.23,0,0,1,.06-1.23h0l.12-.06a.43.43,0,0,0,.15-.29V35a.15.15,0,0,0,0-.07L48,35l-.08.06-.07.06-.07.07-.06.07h0l0,0h0l0,0,0,0h0a1.37,1.37,0,0,0-.08,1.42l.06.13a.57.57,0,0,1-.51.82h0a.52.52,0,0,1-.39-.2l0-.07a1,1,0,0,1-.17-.54h0a.54.54,0,0,0,.22.15,0,0,0,0,0,0,0s0,0,0,0a.7.7,0,0,1,0-.35.66.66,0,0,1,.06-.2.21.21,0,0,0,0,.11h0a.94.94,0,0,1,.11-.32l0-.06.06-.1.06-.1h0v0h0v0h0v0h0v0h0v0h0v0h0v0h0v0h0v0h0v0a.93.93,0,0,0-.36-.73h.07a.89.89,0,0,0-.68-.2h0l0,0,0,.1h0a.29.29,0,0,0-.18.13l-.26.11a0,0,0,0,0,0,0s0,0,0,0,0,.2.1.21l.08,0h0c.08,0,.17,0,.2,0s.06.12,0,.15h-.2s0,.12,0,.16a.58.58,0,0,1,.19,0h.11a.83.83,0,0,0,.28-.08.39.39,0,0,1-.2.13l-.11,0-.06,0a.9.9,0,0,0-.32.23l-.8-.37h0v-.15a.24.24,0,0,0-.15-.21l-.08,0v.54l.67.48.26-.07s0,0,0,0,0,0,0,.05Z"/><path id="Trazado_75" data-name="Trazado 75" class="cls-2" d="M41.57,38.72a1,1,0,0,1-.59,0,1,1,0,0,0,.19.43h.21a.23.23,0,0,1,.23.23h-.7a1.28,1.28,0,0,1-.24-.7.21.21,0,0,0-.21-.21.06.06,0,0,1,.06-.07h0a.57.57,0,0,1,.18,0l.17,0a.59.59,0,0,0,.29-.07,1.17,1.17,0,0,0,0-.27,1,1,0,0,0,0-.24h0a0,0,0,0,1,0,0,.73.73,0,0,1-.88-.53,1.11,1.11,0,0,1,0-.17.88.88,0,0,1,.07-.32l.07-.14a1.23,1.23,0,0,0-.06-1.23h0l-.12-.07a.41.41,0,0,1-.15-.29V35a.17.17,0,0,1,0-.07l0,0,.08.06.07.06.07.07.06.07h0l0,0h0v0l0,0h0a1.39,1.39,0,0,1,.09,1.42l-.07.13a.57.57,0,0,0,.51.82h0a.53.53,0,0,0,.39-.2l0-.07a.94.94,0,0,0,.17-.54h0a.54.54,0,0,1-.22.15s0,0,0,0h0a.59.59,0,0,0,0-.35.66.66,0,0,0-.06-.2.21.21,0,0,1,0,.11h0a.94.94,0,0,0-.11-.32l0-.06,0-.1A.21.21,0,0,1,41,36h0v0h0v0h0v0h0v0h0v0h0v0h0v0h0v0h0v0a.93.93,0,0,1,.36-.73h-.07v0a1,1,0,0,1,.69-.2h0l0,0,0,.1h0a.28.28,0,0,1,.18.12l.26.11a.05.05,0,0,1,0,.07,0,0,0,0,1,0,0s0,.2-.1.21l-.08,0h0c-.07,0-.17,0-.2,0s-.06.12,0,.15h.2s0,.12,0,.16l-.18,0H42a.9.9,0,0,1-.28-.08.41.41,0,0,0,.2.14l.11,0,.06,0a.9.9,0,0,1,.32.23l.8-.37h0V35.4a.23.23,0,0,1,.14-.21l.08,0v.54l-.66.48-.28-.08s-.05,0-.05,0,0,0,0,.06l.76.38v-.08a.23.23,0,0,1,.23-.23V37l-.84-.27a.84.84,0,0,1-.23.46.83.83,0,0,0-.22.33l.62.26a1,1,0,0,1,0,.59.94.94,0,0,0,.42-.19v-.21a.23.23,0,0,1,.23-.23v.7a1.26,1.26,0,0,1-.7.24.21.21,0,0,0-.21.22.07.07,0,0,1-.07-.06h0a.51.51,0,0,1,0-.17,1.1,1.1,0,0,0,0-.18.67.67,0,0,0-.06-.28l-.11,0h-.26l0-.34a.05.05,0,0,0,0,0,0,0,0,0,0,0,0Z"/><path id="Trazado_76" data-name="Trazado 76" class="cls-2" d="M46.43,30.86a1.78,1.78,0,0,0-1.52-.95,1.72,1.72,0,0,0-1.62,0,1.75,1.75,0,0,0-1.51.95,1.38,1.38,0,0,0-.59,1.86,1.3,1.3,0,0,0,.32.41,1.72,1.72,0,0,0,1.33,1.06,1.15,1.15,0,0,1,.95,1.1v3a.87.87,0,0,1-.8.84h-.17a.24.24,0,0,0-.24.24h3.05a.24.24,0,0,0-.24-.24h-.18a.86.86,0,0,1-.8-.84v-3a1.12,1.12,0,0,1,.88-1.08h0a1.73,1.73,0,0,0,1.36-1.07,1.39,1.39,0,0,0-.26-2.27m0,1.91-.09.08,0,.11a1.21,1.21,0,0,1-.81.73h0a2.78,2.78,0,0,0-.38.12h0a.46.46,0,0,0-.07.07h0l-.06,0-.08.06a1.31,1.31,0,0,1-1.47,0l-.08-.06-.06,0h0s0-.05-.07-.07h0a2.4,2.4,0,0,0-.38-.12h0A1.24,1.24,0,0,1,42,33l0-.1-.09-.08a.92.92,0,0,1-.09-1.29.9.9,0,0,1,.27-.21l.13-.07.06-.13a1.34,1.34,0,0,1,1.11-.7h.12l.1-.05a1.24,1.24,0,0,1,1.18,0l.1.05h.11a1.33,1.33,0,0,1,1.11.7l.07.13.13.07a.92.92,0,0,1,.38,1.24.75.75,0,0,1-.21.26"/><path id="Trazado_77" data-name="Trazado 77" class="cls-2" d="M47,29.07a4.24,4.24,0,0,1-1,.43h3.05v6.62a4.92,4.92,0,0,1-.13,1.14,5.38,5.38,0,0,1-.46,1.21.54.54,0,0,0-.07.13,5,5,0,0,1-6.78,1.81,4.91,4.91,0,0,1-1.81-1.81l-.08-.13a5,5,0,0,1-.59-2.35V29.5h3.1a4.55,4.55,0,0,1-1.05-.43H38.71v7a5.39,5.39,0,0,0,.64,2.55s0,.1.08.14a5.39,5.39,0,0,0,7.36,2,5.53,5.53,0,0,0,2-2s0-.09.08-.14a5.53,5.53,0,0,0,.5-1.32,5.66,5.66,0,0,0,.14-1.23v-7Z"/><path id="Trazado_78" data-name="Trazado 78" class="cls-2" d="M50.32,29.18l-.11-.11-.2.21-.21-.21-.11.11.21.21-.21.21.11.1.21-.2.2.2.11-.1-.21-.21Z"/><path id="Trazado_79" data-name="Trazado 79" class="cls-2" d="M38.49,29.18l-.11-.11-.21.21L38,29.07l-.11.11.21.21-.21.21.11.1.21-.2.21.2.11-.1-.21-.21Z"/><path id="Trazado_80" data-name="Trazado 80" class="cls-2" d="M50.32,34.25l-.11-.11-.2.21-.21-.21-.11.11.21.2-.21.21.11.11.21-.21.2.21.11-.11-.21-.21Z"/><path id="Trazado_81" data-name="Trazado 81" class="cls-2" d="M38.49,34.25l-.11-.11-.21.21L38,34.14l-.11.11.21.2-.21.21.11.11.21-.21.21.21.11-.11-.21-.21Z"/><path id="Trazado_82" data-name="Trazado 82" class="cls-2" d="M39.67,39.51l-.11-.11-.21.21-.2-.21-.11.11.21.21-.21.21.11.11.2-.21.21.21.11-.11-.21-.21Z"/><path id="Trazado_83" data-name="Trazado 83" class="cls-2" d="M49.16,39.51l-.1-.11-.21.21-.21-.21-.11.11.21.21-.21.21.11.11.21-.21.21.21.11-.11L49,39.72Z"/><path id="Trazado_84" data-name="Trazado 84" class="cls-2" d="M44.41,41.82l-.11-.11-.21.2-.21-.2-.1.11.2.2-.2.21.11.11.2-.21.21.21.11-.11L44.2,42Z"/></g></g></svg>