<svg id="Capa_1" data-name="Capa 1" xmlns="http://www.w3.org/2000/svg" viewBox="0 0 119.99 113.21"><defs><style>.cls-1{fill:#67737a;}</style></defs><title>SEJ enventos</title><g id="Grupo_4" data-name="Grupo 4"><path id="Trazado_22" data-name="Trazado 22" class="cls-1" d="M43.12,97.86a.58.58,0,0,1-.41.62,7.53,7.53,0,0,1-2.34.41q-3,0-4-2.13a8.4,8.4,0,0,1-5.67,2.13,8.79,8.79,0,1,1,0-17.55,8.11,8.11,0,0,1,4.85,1.51v-.48a.44.44,0,0,1,.38-.51.28.28,0,0,1,.13,0h3.17a.45.45,0,0,1,.52.38v11.7a1.28,1.28,0,0,0,.32.93,1.15,1.15,0,0,0,.88.34,6,6,0,0,0,1.27-.14c.37-.06.58.08.62.42ZM30.73,95.45A4.48,4.48,0,0,0,34.21,94a6.18,6.18,0,0,0,0-7.67,4.42,4.42,0,0,0-3.48-1.5,4.62,4.62,0,0,0-3.56,1.5,6,6,0,0,0,0,7.67,4.65,4.65,0,0,0,3.56,1.5"/><path id="Trazado_23" data-name="Trazado 23" class="cls-1" d="M50.38,98.89a5.46,5.46,0,0,1-3.49-1,3.37,3.37,0,0,1-1.33-2.77V74.54A.46.46,0,0,1,46,74a.29.29,0,0,1,.13,0h3.16a.46.46,0,0,1,.52.39.24.24,0,0,1,0,.12v19.4a1.29,1.29,0,0,0,.33.93,1.14,1.14,0,0,0,.87.34,6.87,6.87,0,0,0,1.28-.14c.37-.06.57.07.62.41l.27,2.38a.53.53,0,0,1-.41.62,7.43,7.43,0,0,1-2.34.41"/><path id="Trazado_24" data-name="Trazado 24" class="cls-1" d="M57.67,78.24a2.6,2.6,0,0,1-1.85-.7,2.28,2.28,0,0,1-.17-3.24l.17-.16a2.78,2.78,0,0,1,3.7,0,2.26,2.26,0,0,1,.21,3.19,2.08,2.08,0,0,1-.21.21,2.6,2.6,0,0,1-1.85.7m2.72,20.65a5.46,5.46,0,0,1-3.49-1,3.36,3.36,0,0,1-1.32-2.77V82.37a.45.45,0,0,1,.39-.51.24.24,0,0,1,.12,0h3.17a.45.45,0,0,1,.51.39.24.24,0,0,1,0,.12V93.93a1.3,1.3,0,0,0,.33.93,1.16,1.16,0,0,0,.88.35,6.77,6.77,0,0,0,1.27-.14c.37-.07.58.07.62.41l.28,2.38a.54.54,0,0,1-.42.62,8,8,0,0,1-2.34.41"/><path id="Trazado_25" data-name="Trazado 25" class="cls-1" d="M72.57,98.89a10,10,0,0,1-5.66-1.44,5.68,5.68,0,0,1-2.53-4c0-.37.13-.55.52-.55l2.89,0a.56.56,0,0,1,.55.45c.5,1.54,1.92,2.31,4.23,2.31A5,5,0,0,0,75,95.14a1.5,1.5,0,0,0,.93-1.34,1.53,1.53,0,0,0-1.13-1.46A10.77,10.77,0,0,0,72,91.67c-1.07-.14-2.13-.32-3.2-.56a5.37,5.37,0,0,1-2.73-1.46A4.13,4.13,0,0,1,65,86.57a4.45,4.45,0,0,1,2-3.78,8.78,8.78,0,0,1,5.26-1.45,9.23,9.23,0,0,1,5.1,1.34,5.08,5.08,0,0,1,2.41,3.55c0,.37-.13.55-.52.55h-2.9c-.3,0-.48-.1-.55-.31A2.68,2.68,0,0,0,74.48,85a4.41,4.41,0,0,0-2.25-.57,4.59,4.59,0,0,0-2.25.48,1.47,1.47,0,0,0-.85,1.28,1.63,1.63,0,0,0,.81,1.41,4.59,4.59,0,0,0,2,.65c.79.09,1.66.24,2.6.43a23.13,23.13,0,0,1,2.6.69,4.12,4.12,0,0,1,2,1.46A4.34,4.34,0,0,1,80,93.52a4.59,4.59,0,0,1-2,3.89,8.84,8.84,0,0,1-5.33,1.48"/><path id="Trazado_26" data-name="Trazado 26" class="cls-1" d="M91.19,98.89a9.13,9.13,0,0,1-6.64-2.41,9.32,9.32,0,0,1,0-12.73A10.3,10.3,0,0,1,96.71,83a6.82,6.82,0,0,1,2.8,4.3c.07.37-.08.55-.44.55H95.8a.54.54,0,0,1-.55-.45,3.31,3.31,0,0,0-1.48-1.77,4.9,4.9,0,0,0-2.58-.67,4.72,4.72,0,0,0-3.6,1.43,5.87,5.87,0,0,0,0,7.53,4.72,4.72,0,0,0,3.6,1.43,4.9,4.9,0,0,0,2.58-.67,3.31,3.31,0,0,0,1.48-1.77.53.53,0,0,1,.55-.45h3.27c.36,0,.51.18.44.55a6.82,6.82,0,0,1-2.8,4.3,9.19,9.19,0,0,1-5.52,1.62"/><path id="Trazado_27" data-name="Trazado 27" class="cls-1" d="M117.46,96.48a10.4,10.4,0,0,1-13.31,0,9.26,9.26,0,0,1,0-12.73,10.4,10.4,0,0,1,13.31,0,9.26,9.26,0,0,1,0,12.73m-10.27-2.61a5.34,5.34,0,0,0,7.23,0,5.81,5.81,0,0,0,0-7.5,5.34,5.34,0,0,0-7.23,0,5.81,5.81,0,0,0,0,7.5"/><path id="Trazado_28" data-name="Trazado 28" class="cls-1" d="M18.28,74.29a.51.51,0,0,1,.51.51V89.67a8.94,8.94,0,0,1-2.54,6.78,11.2,11.2,0,0,1-13.4.41A7.64,7.64,0,0,1,0,91.46c0-.37.12-.55.51-.55H3.9a.49.49,0,0,1,.51.45v0A4,4,0,0,0,6.05,94a5.56,5.56,0,0,0,3.42,1A4.46,4.46,0,0,0,13,93.53a5.77,5.77,0,0,0,1.35-4V79.2c0-1.38-1.48-1.68-2.38-1.73h-.26a.42.42,0,0,1-.42-.42h0V74.71a.42.42,0,0,1,.42-.42h6.56Z"/><path id="Trazado_29" data-name="Trazado 29" class="cls-1" d="M11.18,107.61a2.36,2.36,0,0,1,2.45,1.7h-.9a1.58,1.58,0,0,0-1.56-.89,2,2,0,0,0,0,4,1.55,1.55,0,0,0,1.75-1.32s0-.06,0-.1h-1.7v-.77h2.56c.06,1.63-.74,3-2.62,3a2.8,2.8,0,0,1,0-5.6"/><path id="Trazado_30" data-name="Trazado 30" class="cls-1" d="M17.91,113.21a2.8,2.8,0,1,1,2.79-2.81h0a2.66,2.66,0,0,1-2.52,2.8h-.27m0-.86a1.95,1.95,0,1,0-1.86-2v.09a1.8,1.8,0,0,0,1.65,1.94h.21"/><path id="Trazado_31" data-name="Trazado 31" class="cls-1" d="M25.72,110.3a1.25,1.25,0,0,1,.88,1.26,1.56,1.56,0,0,1-1.5,1.59H22.42v-5.46h2.22a1.51,1.51,0,0,1,1.7,1.3,2.11,2.11,0,0,1,0,.25,1.15,1.15,0,0,1-.64,1.07m-2.39-1.84V110h1.25c.52,0,.88-.22.89-.75s-.36-.79-.89-.79Zm0,2.28v1.6h1.48a.8.8,0,0,0,.89-.73.82.82,0,0,0-.28-.69,1.12,1.12,0,0,0-.71-.18Z"/><path id="Trazado_32" data-name="Trazado 32" class="cls-1" d="M30.6,112.4v.74H28v-.74h.87v-4H28v-.72h2.5v.72h-.8v4Z"/><path id="Trazado_33" data-name="Trazado 33" class="cls-1" d="M35.59,108.47H33.18v1.44h2.28v.8H33.18v1.6h2.46v.82H32.27v-5.46h3.32Z"/><path id="Trazado_34" data-name="Trazado 34" class="cls-1" d="M41.85,113v.13h-.92l-1.36-1.9h-1.2v1.9h-.91v-5.46h2.25a1.76,1.76,0,0,1,1.9,1.61v.17a1.7,1.7,0,0,1-1.14,1.63Zm-2.15-2.52a1,1,0,0,0,.07-2H38.35v2Z"/><path id="Trazado_35" data-name="Trazado 35" class="cls-1" d="M44.3,109.42l.06,1.74v2h-.9v-5.48h.33l3.31,3.68L47,109.67v-2h.9v5.48h-.31Z"/><path id="Trazado_36" data-name="Trazado 36" class="cls-1" d="M52.44,113.21a2.8,2.8,0,1,1,2.79-2.81h0a2.66,2.66,0,0,1-2.52,2.8h-.27m0-.86a1.95,1.95,0,1,0-1.87-2v.09a1.8,1.8,0,0,0,1.65,1.94h.22"/><path id="Trazado_37" data-name="Trazado 37" class="cls-1" d="M61.58,107.68a2.73,2.73,0,0,1,0,5.46h-2v-5.46Zm0,4.63a1.91,1.91,0,0,0,0-3.81H60.51v3.81Z"/><path id="Trazado_38" data-name="Trazado 38" class="cls-1" d="M69.3,108.47H66.88v1.44h2.28v.8H66.88v1.6h2.46v.82H66v-5.46h3.32Z"/><path id="Trazado_39" data-name="Trazado 39" class="cls-1" d="M72.07,112.32h2.35v.82H71.16v-5.46h.91Z"/><path id="Trazado_40" data-name="Trazado 40" class="cls-1" d="M81.64,108.47H79.23v1.44H81.5v.8H79.23v1.6h2.45v.82H78.31v-5.46h3.33Z"/><path id="Trazado_41" data-name="Trazado 41" class="cls-1" d="M84,111.59c0,.61.71.81,1.3.81s1.27-.14,1.27-.82-.74-.79-1.38-.85c-1-.09-2-.41-2-1.5s1-1.62,2.06-1.62,2,.46,2,1.58h-.83c0-.59-.68-.77-1.22-.77s-1.15.17-1.15.78.62.7,1.25.78c1.11.13,2.12.35,2.12,1.6s-1.13,1.63-2.15,1.63-2.19-.48-2.21-1.63Z"/><path id="Trazado_42" data-name="Trazado 42" class="cls-1" d="M88.61,108.48v-.8h4.06v.8H91.09v4.66H90.2v-4.66Z"/><path id="Trazado_43" data-name="Trazado 43" class="cls-1" d="M94.59,112l-.53,1.14h-1V113l2.53-5.39h.42L98.57,113v.12h-.95L97.08,112Zm.3-.76H96.8l-1-2.19Z"/><path id="Trazado_44" data-name="Trazado 44" class="cls-1" d="M101.93,107.68a2.73,2.73,0,0,1,0,5.46h-2v-5.46Zm0,4.63a1.91,1.91,0,0,0,0-3.81h-1.06v3.81Z"/><path id="Trazado_45" data-name="Trazado 45" class="cls-1" d="M108.77,113.21a2.8,2.8,0,1,1,2.8-2.81h0a2.68,2.68,0,0,1-2.53,2.8h-.27m0-.86a1.95,1.95,0,1,0-1.86-2,.28.28,0,0,0,0,.09,1.8,1.8,0,0,0,1.65,1.94h.22"/><path id="Trazado_46" data-name="Trazado 46" class="cls-1" d="M59.43,8.16v3a2.75,2.75,0,0,1,1.21,0h0v-3a2,2,0,0,0-1.22,0"/><path id="Trazado_47" data-name="Trazado 47" class="cls-1" d="M46.8,9a.55.55,0,0,0,.31.44,9.42,9.42,0,0,0,4,.91,9.22,9.22,0,0,0,5.2-1.67,7.18,7.18,0,0,1,7.41-.31,2.69,2.69,0,0,1-2,.74h-.46v1.08h.46A3.71,3.71,0,0,0,65,8.47h0A.6.6,0,0,0,65,8.19V1.81a.54.54,0,0,0-.24-.44,8.24,8.24,0,0,0-9.11,0A8,8,0,0,1,47.56,2a.54.54,0,0,0-.58.89l3.48,3L47,8.47A.55.55,0,0,0,46.8,9m4.84-2.55a.55.55,0,0,0,.11-.75l-.08-.09L49.62,3.8a9,9,0,0,0,6.67-1.54A7.16,7.16,0,0,1,64,2.11V7.26a8.25,8.25,0,0,0-8.27.5,8,8,0,0,1-7.27,1Z"/><path id="Trazado_48" data-name="Trazado 48" class="cls-1" d="M59.42,5.52h1.22V4.36H61.8V3.14H60.64V2H59.42V3.14H58.26V4.36h1.16Z"/><path id="Trazado_49" data-name="Trazado 49" class="cls-1" d="M86.08,49.65c.39-.45.79-.92,1.19-1.37a26.52,26.52,0,0,0,4.35-6,10.67,10.67,0,0,0,1-6,9.35,9.35,0,0,0-5.57-7.37,4.32,4.32,0,0,0,.6-2.76v0a.57.57,0,0,0-.64-.51.56.56,0,0,0-.36.17,2.28,2.28,0,0,1-2.38.53l-.08,0a11.27,11.27,0,0,0-4-.73,11.07,11.07,0,0,0-1.63.12v-.08a3.78,3.78,0,0,0-.2-1.2.59.59,0,0,0-.74-.37l-.11.05a1.49,1.49,0,0,1-.77.21h-.18c-.32,0-.61-.05-.86-.05a8.95,8.95,0,0,0-3.56.75,8.75,8.75,0,0,0-1,.55A8.47,8.47,0,0,0,69.31,27a5.37,5.37,0,0,0-.5.57,5.16,5.16,0,0,0-.43.61c-.28.42-.53.87-.81,1.29l-.09.13,0,.07-.05.06h0l0,0-.26.34-.3.35-.49.5-.19.18c-.12.11-.23.21-.36.31l-.1.09-1.78-1.23-.28-1.71c.12-.19.23-.38.33-.56l.07-.11a3.09,3.09,0,0,0,.14-.32l0-.09c0-.09.08-.18.11-.27a.37.37,0,0,0,0-.11s0-.08,0-.12l.5-.11.4-2.9h0l-.54-.13,0-.28c0-.12,0-.24-.07-.36a5,5,0,0,0-.37-1l0-.07a3.72,3.72,0,0,0-2.1-1.83l-.07,0,0-.09c0-.06,0-.12.08-.19a3.7,3.7,0,0,1,1.68-1.77,4.76,4.76,0,0,1,.19.53.52.52,0,0,0,.56.36A.94.94,0,0,0,65,19a1.65,1.65,0,0,0,.5-.55,4,4,0,0,0,.28-3.66,2.58,2.58,0,0,0-2.24-1.63,2.21,2.21,0,0,0-1,.17,2.84,2.84,0,0,0-5.13,0,2.19,2.19,0,0,0-1-.17,2.58,2.58,0,0,0-2.24,1.63,4,4,0,0,0,.28,3.66A1.68,1.68,0,0,0,55,19a.9.9,0,0,0,.42.16A.51.51,0,0,0,56,18.8s.07-.22.19-.53A3.66,3.66,0,0,1,57.87,20c0,.07.05.13.08.19l0,.09-.07,0a3.75,3.75,0,0,0-2.1,1.83.64.64,0,0,1,0,.07,4.45,4.45,0,0,0-.37,1c0,.12-.05.24-.07.36a2.7,2.7,0,0,0,0,.28l-.54.13h0l.4,2.9.5.11s0,.08,0,.12a.58.58,0,0,0,0,.11l.11.27,0,.09a3.13,3.13,0,0,0,.15.32l.06.11c.1.19.22.38.34.57l-.28,1.7-1.79,1.23a8.45,8.45,0,0,1-1-.91l-.16-.17c-.2-.22-.38-.45-.56-.69l0,0s0-.05-.05-.06l0-.07-.09-.14c-.28-.42-.53-.86-.8-1.29-.14-.21-.28-.42-.43-.61l-.5-.57a9.46,9.46,0,0,0-1.84-1.49,10.48,10.48,0,0,0-1-.55,8.92,8.92,0,0,0-2.32-.66,8.52,8.52,0,0,0-1.24-.09c-.25,0-.54,0-.86.05h-.18a1.58,1.58,0,0,1-.77-.2.58.58,0,0,0-.8.21.37.37,0,0,0,0,.11,3.67,3.67,0,0,0-.2,1.19v.11a11.31,11.31,0,0,0-5.82.58l-.09,0a2.26,2.26,0,0,1-2.38-.53.59.59,0,0,0-.83,0,.67.67,0,0,0-.17.36v0a4.32,4.32,0,0,0,.61,2.76,9.34,9.34,0,0,0-5.58,7.37,10.62,10.62,0,0,0,1,6,26.65,26.65,0,0,0,4.35,6c.39.45.8.91,1.18,1.36l.4.48c1,1.15,2.13,2.46,2.13,3.72A2,2,0,0,1,34.49,56a2.29,2.29,0,0,1-.37,0,2.39,2.39,0,0,1-.83-.15A1.13,1.13,0,0,0,33,55.8h0a1.33,1.33,0,0,0-1.43.89,1.18,1.18,0,0,0-1.18,1.18s0,.07,0,.11V58A6.78,6.78,0,0,0,37,64h.09a7,7,0,0,0,4.17-1.46l0,0a1.18,1.18,0,0,0,1.52.13A7.51,7.51,0,0,0,45,60.27h0l.12-.24.12.2c.08.13.16.27.25.4a17.61,17.61,0,0,0,28.8,0l.24-.4.12-.2.12.24h0A7.51,7.51,0,0,0,77,62.75a1.18,1.18,0,0,0,1.52-.13l0,0A7,7,0,0,0,82.73,64h.09a6.8,6.8,0,0,0,6.62-6V58a1.17,1.17,0,0,0-.85-1.25,1.65,1.65,0,0,0-.31,0,1.34,1.34,0,0,0-1.43-.89h0a1.2,1.2,0,0,0-.33.06,2.39,2.39,0,0,1-.83.15,2,2,0,0,1-2.16-1.79,2.28,2.28,0,0,1,0-.37c0-1.26,1.14-2.57,2.13-3.72.14-.17.28-.32.4-.48M80.24,26.72a10.06,10.06,0,0,1,3.56.65l.09,0a3.49,3.49,0,0,0,2.58-.09A3.16,3.16,0,0,1,86,28.49a16.23,16.23,0,0,0-2.3-.28,8.38,8.38,0,0,0-7.14,4,1.29,1.29,0,0,0-1.27-.9H71.82a10,10,0,0,1,8.42-4.59m1.21,14.4.1.27a3.49,3.49,0,0,0,3.35,2.18H85c-2.53,2.58-6.07,4-8.49,6.66V40.94l.25-.25c.69-.71,1.32-1.5,2-2.2a6.78,6.78,0,0,1,3.79-2.15,2.87,2.87,0,0,1,1.78.21,1.62,1.62,0,0,1,.7.74,1.64,1.64,0,0,1-.33,1.83l-.15.12a1.82,1.82,0,0,1-.8.3,1.37,1.37,0,0,1-.57-.06,1.38,1.38,0,0,0-.67-.09,1.3,1.3,0,0,0-.89.48,1.37,1.37,0,0,0-.22,1.25M64.18,24.91l-.11,1h0l-.57.12-.54.11V24.61l.69.17.55.13M60,28h0l3-.64h0a5.77,5.77,0,0,1-.4.68,5,5,0,0,1-.32.44,2.66,2.66,0,0,1-3.67.85,2.62,2.62,0,0,1-.84-.85,3.61,3.61,0,0,1-.33-.44,5.77,5.77,0,0,1-.4-.68h0ZM58.29,26.4V24.34l1.19-.28v2.59Zm2.32.25V24.06l1.19.28V26.4Zm-3.87-9.41a2.53,2.53,0,0,1,.86-.83,3.76,3.76,0,0,0-2.24,1.1,2.84,2.84,0,0,1,0-2.25,1.41,1.41,0,0,1,1.21-.92,2.39,2.39,0,0,1,1.19.3A3.63,3.63,0,0,1,59.54,17a3.7,3.7,0,0,0-.76-2.63,2.6,2.6,0,0,0-.3-.36,1.67,1.67,0,0,1,2.12-1,1.69,1.69,0,0,1,1,1,2.6,2.6,0,0,0-.3.36A3.7,3.7,0,0,0,60.56,17a3.57,3.57,0,0,1,1.78-2.32,2.34,2.34,0,0,1,1.19-.3,1.42,1.42,0,0,1,1.21.92,2.92,2.92,0,0,1,0,2.25,3.76,3.76,0,0,0-2.24-1.1,2.41,2.41,0,0,1,.85.83,4.83,4.83,0,0,0-2.21,2.34l-.09.22L61,20c-.32-.14-.62-.32-.94-.49h0c-.31.17-.61.35-.93.49a1,1,0,0,0-.07-.15,1,1,0,0,0-.09-.22,4.83,4.83,0,0,0-2.21-2.34m1.72,4.21c.26-.09.55-.17.81-.27a7.22,7.22,0,0,0,.78-.41,7.08,7.08,0,0,0,.77.41c.27.1.55.18.81.27a3,3,0,0,1,1.84,2.11c-3.12-.77-3.34-.82-3.42-.82h0c-.08,0-.3.05-3.42.82a3,3,0,0,1,1.84-2.11m-2.42,4.49h0l-.11-1,.55-.13.69-.16v1.55l-.54-.11Zm1.3,5,.18-1,.07.07A3.72,3.72,0,0,0,60,31h0a3.66,3.66,0,0,0,2.44-1l.09-.09.17,1,1.95,1.34-.29.18a9.78,9.78,0,0,1-2.65,1,7.14,7.14,0,0,1-1.72.24,7.5,7.5,0,0,1-1.49-.19,10,10,0,0,1-2.74-1l-.42-.25ZM34,27.53A3.41,3.41,0,0,0,36,27.41l.09,0A10,10,0,0,1,48,31.3H44.61a1.28,1.28,0,0,0-1.27.9,8.39,8.39,0,0,0-7.14-4,16.25,16.25,0,0,0-2.3.29,3.21,3.21,0,0,1-.52-1.18,3.48,3.48,0,0,0,.62.21m10.74,29.7a1.33,1.33,0,0,1,0,.28v.07c0,.1,0,.2-.05.3v0a6.52,6.52,0,0,1-.4,1.3l0,0a2.29,2.29,0,0,0-.1.23,1.09,1.09,0,0,0-.08.15,6.39,6.39,0,0,1-1.9,2.17,6.22,6.22,0,0,0,.92-5.35v0A8.56,8.56,0,0,1,42,60.05h0a5.63,5.63,0,0,1-4.85,2.82H37a5.68,5.68,0,0,1-5.45-5v0s0,0,0,0a4.12,4.12,0,0,0,7.56-2A4.09,4.09,0,0,1,37.36,58l0,0a3.9,3.9,0,0,1-.73.31,3.11,3.11,0,0,1-4.07-1.5l.26.1a3.69,3.69,0,0,0,.56.19,3.36,3.36,0,0,0,.63.06,3.62,3.62,0,0,0,.57,0l.29,0,.21,0a3.43,3.43,0,0,0,.83-.3,2.88,2.88,0,0,0,1.2-1.17,3.07,3.07,0,0,0,.33-.82,4.33,4.33,0,0,0,.11-.95c0-1.9-1.67-3.59-2.81-5-1.92-2.27-4.09-4.43-5.37-7.15a9.63,9.63,0,0,1-.94-5.31,8,8,0,0,1,7.84-7,7,7,0,0,1,7.1,6.39v3.29h0a16.51,16.51,0,0,0-2.71-2.64c-1.56-1.11-3.86-1.92-5.67-.91a3,3,0,0,0-1.15,4.12,1.76,1.76,0,0,0,.14.23,2.79,2.79,0,0,0,3.1,1s-.65,2.09-3.13,1.18a2.3,2.3,0,0,1-.52-.26,4.73,4.73,0,0,1-1.18-1.18,4.64,4.64,0,0,1-.38-.69,3.67,3.67,0,0,1-.3-.92,4.57,4.57,0,0,1,.39-2.84,5.62,5.62,0,0,1,3.38-2.79,6.51,6.51,0,0,1,4.72.57,4.56,4.56,0,0,1,.59.38,3.6,3.6,0,0,1,.47.39,5.23,5.23,0,0,0-4.45-2.54,6.18,6.18,0,0,0-5,2.33,6.28,6.28,0,0,0-1.21,5c.34,1.92,1.88,3.53,3.1,5a51.3,51.3,0,0,1,6,8.14,7.43,7.43,0,0,1,.91,3.72,4.91,4.91,0,0,1-4.68,4.91h0A5,5,0,0,0,41,58.65c2.22-4.12-1.28-8.3-3.72-11.33L36,45.85l2.83,2c.57.42,1.14.84,1.71,1.3a15.51,15.51,0,0,1,2.27,2.24,8.6,8.6,0,0,1,2,5.81M34.83,43.57H35a3.47,3.47,0,0,0,3.34-2.18,2.31,2.31,0,0,0,.1-.28,1.35,1.35,0,0,0-.22-1.24,1.31,1.31,0,0,0-.89-.49,1.39,1.39,0,0,0-.67.1,1.37,1.37,0,0,1-.57.06,2,2,0,0,1-.8-.3l-.15-.12a1.65,1.65,0,0,1-.33-1.84,1.6,1.6,0,0,1,.7-.73,2.87,2.87,0,0,1,1.78-.21,6.72,6.72,0,0,1,3.79,2.15c.7.7,1.33,1.49,2,2.2a3.33,3.33,0,0,0,.26.24v9.29c-2.45-2.7-6-4.08-8.52-6.67ZM74,57.28v0a8.84,8.84,0,0,0,.16,1.05h0a12.26,12.26,0,0,1-.67,1.3l-.23.37A16.22,16.22,0,0,1,50.61,64a16,16,0,0,1-3.93-3.93l-.23-.37a12.34,12.34,0,0,1-.68-1.3h0a7.18,7.18,0,0,0,.16-1.05.11.11,0,0,1,0,0A9.21,9.21,0,0,0,44.63,52h0V32.49h5.48l-.69-1.18h0l0,.07A11.19,11.19,0,0,0,42.68,26a2.56,2.56,0,0,1,0-.39,1.48,1.48,0,0,1,0-.21,2.84,2.84,0,0,0,.92.06,7.32,7.32,0,0,1,.76,0h.19a7.69,7.69,0,0,1,3.5.94,7.78,7.78,0,0,1,2.66,2.41c.28.41.53.85.81,1.26a11.45,11.45,0,0,0,.91,1.17,9.93,9.93,0,0,0,.72.73l.37.34,0,0,.37.3.05,0,.38.28,0,0,.39.26,0,0a11.31,11.31,0,0,0,1.73.89l.09,0,.32.12c.28.1.56.18.84.26a7.49,7.49,0,0,0,4.54,0c.28-.08.56-.16.84-.26l.33-.12.08,0a11.31,11.31,0,0,0,1.73-.89l0,0,.39-.26,0,0,.38-.28,0,0,.12-.1h0l.09-.08.15-.13,0,0,.31-.28.06-.05h0a9.93,9.93,0,0,0,.72-.73c.16-.17.3-.35.44-.53l.09-.12c.12-.16.24-.31.35-.47l0,0,0-.05c.08-.12.16-.24.23-.36.18-.28.36-.57.55-.85a7.66,7.66,0,0,1,6.16-3.35h.19a7.14,7.14,0,0,1,.75,0,2.9,2.9,0,0,0,.93-.06c0,.07,0,.14,0,.21s0,.22,0,.32a11.19,11.19,0,0,0-7,5.47l0-.07h0l-.69,1.17h5.48V52h0A9.2,9.2,0,0,0,74,57.27m8.45-3.42a3.8,3.8,0,0,0,.11.95,3.41,3.41,0,0,0,.32.82A3,3,0,0,0,84,56.79a4,4,0,0,0,.84.3l.2,0,.29,0a5.52,5.52,0,0,0,.58,0,3.36,3.36,0,0,0,.63-.06,5.1,5.1,0,0,0,.55-.19l.26-.1a3.1,3.1,0,0,1-4.07,1.5A3.82,3.82,0,0,1,82.6,58l0,0a4.09,4.09,0,0,1-1.81-2.08,4.12,4.12,0,0,0,7.56,2l0,0v0a5.67,5.67,0,0,1-5.44,5H82.8A5.61,5.61,0,0,1,78,60.06h0a8.62,8.62,0,0,1-1.13-3.62v0a6.22,6.22,0,0,0,.93,5.35,6.19,6.19,0,0,1-1.9-2.17.8.8,0,0,1-.08-.16,1.47,1.47,0,0,1-.1-.22l0,0a6.52,6.52,0,0,1-.4-1.3v0c0-.1,0-.2,0-.3s0,0,0-.06l0-.28a8.64,8.64,0,0,1,2-5.81,15.58,15.58,0,0,1,2.28-2.24c.56-.46,1.14-.88,1.71-1.3l2.83-2c-.34.4-1.11,1.29-1.26,1.48-2.44,3-5.94,7.2-3.73,11.32a5,5,0,0,0,4.43,2.66,4.91,4.91,0,0,0,.86-.08h0a4.91,4.91,0,0,1-4.68-4.9,7.42,7.42,0,0,1,.9-3.72,50.46,50.46,0,0,1,6-8.14c1.21-1.46,2.75-3.07,3.09-5a6.28,6.28,0,0,0-1.21-5,6.16,6.16,0,0,0-5-2.32,5.22,5.22,0,0,0-4.45,2.54,3.35,3.35,0,0,1,.47-.39c.19-.14.39-.27.59-.39a6.56,6.56,0,0,1,4.72-.57A5.69,5.69,0,0,1,88,36.14,4.68,4.68,0,0,1,88.42,39a4.75,4.75,0,0,1-.69,1.62c-.11.16-.23.3-.35.45a4.38,4.38,0,0,1-.83.72A2.33,2.33,0,0,1,86,42c-2.48.91-3.13-1.18-3.13-1.18a2.79,2.79,0,0,0,3.1-1,3,3,0,0,0-.79-4.22L85,35.5c-1.81-1-4.11-.2-5.67.91a17.48,17.48,0,0,0-2.72,2.65h0V35.79a7,7,0,0,1,7.1-6.4,8,8,0,0,1,7.84,7,9.56,9.56,0,0,1-.93,5.31c-1.28,2.72-3.45,4.88-5.37,7.15-1.14,1.35-2.81,3.05-2.81,5"/><path id="Trazado_50" data-name="Trazado 50" class="cls-1" d="M62.07,52.74v-.19a.54.54,0,0,0-.54-.54v1.66l2-.64a1.89,1.89,0,0,0,.56,1.08,1.84,1.84,0,0,1,.5.79l-1.45.63a2.35,2.35,0,0,0,0,1.39,2.27,2.27,0,0,1-1-.44V56a.54.54,0,0,0-.54-.54v1.66a3.13,3.13,0,0,0,1.67.57.5.5,0,0,1,.5.51.16.16,0,0,0,.16-.14h0a1.54,1.54,0,0,0-.07-.42,1.64,1.64,0,0,1,.1-1.09l.26-.07.39,0a2.22,2.22,0,0,1,.57.07,1.53,1.53,0,0,0,.36.07h.19a2.06,2.06,0,0,0,.65-.11s.08,0,.1,0,0,.11,0,.11a1.11,1.11,0,0,1-.61.26,1.51,1.51,0,0,1-.3,0c.21.5.38.93.4,1a2.32,2.32,0,0,0,1.38,0,2.15,2.15,0,0,1-.43,1h-.51a.54.54,0,0,0-.54.54h1.65A3,3,0,0,0,68,57.75a.52.52,0,0,1,.52-.5.15.15,0,0,0-.14-.15h0a1.54,1.54,0,0,0-.42.07,1.63,1.63,0,0,1-1.09-.1,2.11,2.11,0,0,1,0-1.22h0s0-.06,0-.09a1.73,1.73,0,0,0,2-2.43L68.66,53a2.88,2.88,0,0,1,.13-2.92h0l0,0a1,1,0,0,0,.28-.16,1,1,0,0,0,.36-.68.28.28,0,0,1,0-.09s0,0,0-.05a1.1,1.1,0,0,0,0-.18l-.12.08-.19.14-.17.15-.17.16-.15.17h0l0,0,0,0,0,0,0,.06v0a3.25,3.25,0,0,0-.2,3.37l.14.31a1.34,1.34,0,0,1-.61,1.8,1.26,1.26,0,0,1-.6.14h0A1.23,1.23,0,0,1,66.3,55a1.31,1.31,0,0,1-.12-.15,2.23,2.23,0,0,1-.41-1.3l0,0h0a1.52,1.52,0,0,0,.52.36s.05,0,.05,0a0,0,0,0,0,0,0,1.6,1.6,0,0,1-.05-.84,1.92,1.92,0,0,1,.15-.48.47.47,0,0,0,.09.28,0,0,0,0,0,0,0l0,0a2.55,2.55,0,0,1,.25-.75L67,51.9l.13-.23a1.23,1.23,0,0,0,.14-.25h0l0,0v-.12l0,0v-.12a0,0,0,0,1,0,0v-.28a0,0,0,0,1,0,0v-.36a2.22,2.22,0,0,0-.84-1.74l.12,0s0,0,0,0a0,0,0,0,0,0,0,2.17,2.17,0,0,0-1.62-.47H65a.12.12,0,0,0-.09.08l-.07.23h-.06a.63.63,0,0,0-.43.29l-.62.26a.14.14,0,0,0-.08.17l0,0c0,.1.08.48.23.49l.2,0h0c.18-.05.4-.08.47,0s.13.3,0,.37l-.25,0h-.24s-.1.29.09.38a1.31,1.31,0,0,1,.44-.07h.28a2.17,2.17,0,0,0,.66-.19.88.88,0,0,1-.48.32l-.27.08-.14,0a2.21,2.21,0,0,0-.76.56L62,50.36l0,0V50a.54.54,0,0,0-.33-.5.36.36,0,0,0-.2-.06v1.29l1.59,1.15.62-.17a.1.1,0,0,1,.09.17Z"/><path id="Trazado_51" data-name="Trazado 51" class="cls-1" d="M54,57.85a2.2,2.2,0,0,1-1.39,0,2.18,2.18,0,0,0,.44,1h.51a.54.54,0,0,1,.54.54H52.41a3,3,0,0,1-.57-1.66.51.51,0,0,0-.51-.5.15.15,0,0,1,.14-.16h0a1.54,1.54,0,0,1,.43.06,1.58,1.58,0,0,0,1.09-.1,2.16,2.16,0,0,0,0-1.21h0a.28.28,0,0,1,0-.09,1.72,1.72,0,0,1-2.09-1.26A1.75,1.75,0,0,1,51,53.32l.16-.32a2.91,2.91,0,0,0-.14-2.92h0l0,0a2.69,2.69,0,0,1-.29-.16,1.06,1.06,0,0,1-.36-.68v-.09a.08.08,0,0,1,0-.05.55.55,0,0,1,0-.18l.12.08a1.24,1.24,0,0,1,.18.14l.18.15s.11.1.16.16a1.22,1.22,0,0,1,.15.17h0l0,0h0l0,0,0,0,.05.07v0a3.27,3.27,0,0,1,.2,3.36l-.15.31A1.35,1.35,0,0,0,52,55.29a1.31,1.31,0,0,0,.59.14h.05a1.23,1.23,0,0,0,.92-.47l.12-.16a2.19,2.19,0,0,0,.4-1.29l0,0h0a1.58,1.58,0,0,1-.53.35,0,0,0,0,1-.05,0v0a1.5,1.5,0,0,0,.06-.84,2.21,2.21,0,0,0-.15-.48.48.48,0,0,1-.1.28s0,0-.05,0,0,0,0,0A2.38,2.38,0,0,0,53,52l-.07-.15-.14-.23a1.88,1.88,0,0,1-.14-.24h0a0,0,0,0,0,0,0v0l0,0v-.15s0,0,0,0v-.09a0,0,0,0,1,0,0v-.21s0,0,0,0v-.35a2.25,2.25,0,0,1,.84-1.75l-.12,0a0,0,0,0,1,0,0s0,0,0,0a2.25,2.25,0,0,1,1.62-.47l.12,0a.1.1,0,0,1,.09.07l.07.24h.06a.64.64,0,0,1,.43.3l.62.25a.14.14,0,0,1,.08.17l0,.05c0,.09-.07.47-.23.49l-.2-.06h0c-.18,0-.4-.08-.47,0s-.13.3,0,.36a1,1,0,0,0,.25,0l.15,0h.09s.1.29-.09.37a1.61,1.61,0,0,0-.44-.06H55a2.17,2.17,0,0,1-.66-.19.93.93,0,0,0,.48.32l.27.08.13,0a1.94,1.94,0,0,1,.77.56l1.9-.9,0,0V50a.56.56,0,0,1,.34-.5.46.46,0,0,1,.2,0v1.29l-1.57,1.13-.68-.18a.1.1,0,0,0-.13,0,.09.09,0,0,0,0,.12l1.8.91v-.2a.54.54,0,0,1,.54-.54h0v1.66l-2-.64a1.89,1.89,0,0,1-.56,1.08,1.84,1.84,0,0,0-.5.79l1.45.63a2.2,2.2,0,0,1,0,1.39,2.27,2.27,0,0,0,1-.44V56a.54.54,0,0,1,.54-.54v1.66a3.13,3.13,0,0,1-1.67.57.5.5,0,0,0-.5.51A.15.15,0,0,1,56,58h0a1.22,1.22,0,0,1,.06-.42,1.63,1.63,0,0,0-.1-1.09l-.26-.07-.39,0h-.24l.12-.8a.09.09,0,1,0-.17,0Z"/><path id="Trazado_52" data-name="Trazado 52" class="cls-1" d="M65.52,39.15a4.23,4.23,0,0,0-3.6-2.25,4.08,4.08,0,0,0-3.87,0,4.25,4.25,0,0,0-3.59,2.25,3.29,3.29,0,0,0-1.38,4.45,3.19,3.19,0,0,0,.76.95A4.09,4.09,0,0,0,57,47.09a2.73,2.73,0,0,1,2.27,2.61v7.15a2.1,2.1,0,0,1-1.91,2h-.43a.56.56,0,0,0-.56.57h7.24a.56.56,0,0,0-.57-.57h-.42a2,2,0,0,1-1.91-2V49.7a2.69,2.69,0,0,1,2.1-2.58l.1,0a4.06,4.06,0,0,0,3.22-2.54,3.28,3.28,0,0,0,.34-4.64,3.36,3.36,0,0,0-1-.76m-.11,4.56-.2.18-.1.25a3,3,0,0,1-1.93,1.76h0a5,5,0,0,0-.91.28h0l-.15.16,0,0-.15.12-.19.14a3.11,3.11,0,0,1-3.5,0L58,46.49l-.15-.13h0l-.15-.16h0a4.7,4.7,0,0,0-.9-.28h0a3,3,0,0,1-1.93-1.76l-.1-.25-.2-.18a2.18,2.18,0,0,1-.23-3.07,2.4,2.4,0,0,1,.64-.5l.3-.16.17-.31A3.12,3.12,0,0,1,58.08,38h.26l.23-.13a3,3,0,0,1,2.81,0l.23.13h.26a3.12,3.12,0,0,1,2.65,1.65l.16.31.31.16a2.17,2.17,0,0,1,.91,2.93,2,2,0,0,1-.5.64"/><path id="Trazado_53" data-name="Trazado 53" class="cls-1" d="M67,34.91a11.46,11.46,0,0,1-2.45,1h7.25V51.66a12.22,12.22,0,0,1-.31,2.7,12,12,0,0,1-1.09,2.88l-.18.31a11.8,11.8,0,0,1-20.42,0l-.17-.31a11.74,11.74,0,0,1-1.4-5.58V35.94h7.37a12.16,12.16,0,0,1-2.51-1h-5.9V51.66a12.87,12.87,0,0,0,1.53,6.07l.19.34a12.83,12.83,0,0,0,22.2,0c.06-.12.13-.23.19-.34a12.74,12.74,0,0,0,1.52-6.07V34.91Z"/><path id="Trazado_54" data-name="Trazado 54" class="cls-1" d="M74.78,35.17l-.26-.26-.49.5-.5-.5-.26.26.5.49-.49.5.26.25.49-.49.5.49.25-.25-.49-.5Z"/><path id="Trazado_55" data-name="Trazado 55" class="cls-1" d="M46.64,35.17l-.26-.26-.49.5-.49-.5-.26.26.5.49-.5.5.26.25.5-.49.49.49.26-.25-.5-.5Z"/><path id="Trazado_56" data-name="Trazado 56" class="cls-1" d="M74.78,47.21,74.52,47l-.49.49-.5-.49-.26.25.5.5-.49.49.26.26L74,48l.5.49.25-.26-.49-.49Z"/><path id="Trazado_57" data-name="Trazado 57" class="cls-1" d="M46.64,47.21,46.38,47l-.49.49L45.4,47l-.26.25.5.5-.5.49.26.26.5-.49.49.49.26-.26-.5-.49Z"/><path id="Trazado_58" data-name="Trazado 58" class="cls-1" d="M49.46,59.73l-.26-.25-.49.49-.5-.49-.26.25.5.5-.49.49.26.26.49-.49.5.49.25-.26L49,60.23Z"/><path id="Trazado_59" data-name="Trazado 59" class="cls-1" d="M72,59.73l-.26-.25-.49.49-.5-.49-.26.25.5.5-.49.49.26.26.49-.49.49.49.26-.26-.49-.49Z"/><path id="Trazado_60" data-name="Trazado 60" class="cls-1" d="M60.72,65.21,60.47,65l-.5.49L59.48,65l-.26.26.5.49-.49.5.25.25L60,66l.49.49.26-.25-.49-.5Z"/></g></svg>