<svg id="Capa_1" data-name="Capa 1" xmlns="http://www.w3.org/2000/svg" viewBox="0 0 147.47 41.95"><defs><style>.cls-1,.cls-3,.cls-4,.cls-5,.cls-6,.cls-7{fill:#fff;}.cls-2,.cls-3,.cls-4,.cls-5,.cls-6,.cls-7{isolation:isolate;}.cls-3,.cls-4,.cls-5,.cls-6,.cls-7{font-size:16px;font-family:Nutmeg-Bold, Nutmeg;font-weight:700;}.cls-3{letter-spacing:0.01em;}.cls-4{letter-spacing:0em;}.cls-5{letter-spacing:0em;}.cls-6{letter-spacing:0em;}</style></defs><title>SEJ enventos</title><g id="Grupo_1141" data-name="Grupo 1141"><path id="Trazado_44" data-name="Trazado 44" class="cls-1" d="M38.76,0A26.52,26.52,0,0,0,20.45,7.33,26.48,26.48,0,0,0,2.14,0H0V32.59H2.14a22.2,22.2,0,0,1,16.7,7.54L20.44,42,22,40.13a22.18,22.18,0,0,1,16.69-7.54h2.14L40.9,0ZM4.29,4.39a22,22,0,0,1,14,6.89V33.82a26.26,26.26,0,0,0-14-5.43ZM22.6,11.28a22,22,0,0,1,14-6.89l0,24a26.21,26.21,0,0,0-14,5.4Z"/><g id="Educación" class="cls-2"><text class="cls-3" transform="translate(57.77 21.24)">E</text><text class="cls-4" transform="translate(68.24 21.24)">du</text><text class="cls-4" transform="translate(90.72 21.24)">c</text><text class="cls-5" transform="translate(100.56 21.24)">a</text><text class="cls-5" transform="translate(112 21.24)">c</text><text class="cls-3" transform="translate(121.85 21.24)">i</text><text class="cls-6" transform="translate(126.46 21.24)">ó</text><text class="cls-7" transform="translate(136.61 21.24)">n</text></g></g></svg>