<svg id="Capa_1" data-name="Capa 1" xmlns="http://www.w3.org/2000/svg" viewBox="0 0 14 16"><defs><style>.cls-1{fill:#636668;}</style></defs><title>SEJ enventos</title><path id="Icon_awesome-calendar-day" data-name="Icon awesome-calendar-day" class="cls-1" d="M0,14.5A1.5,1.5,0,0,0,1.5,16h11A1.5,1.5,0,0,0,14,14.5h0V6H0Zm2-6A.5.5,0,0,1,2.5,8h3a.5.5,0,0,1,.5.5v3a.5.5,0,0,1-.5.5h-3a.5.5,0,0,1-.5-.5ZM12.5,2H11V.5a.5.5,0,0,0-.5-.5h-1A.5.5,0,0,0,9,.5V2H5V.5A.5.5,0,0,0,4.5,0h-1A.5.5,0,0,0,3,.5V2H1.5A1.5,1.5,0,0,0,0,3.5V5H14V3.5A1.5,1.5,0,0,0,12.5,2Z"/></svg>