<svg id="Capa_1" data-name="Capa 1" xmlns="http://www.w3.org/2000/svg" viewBox="0 0 16 16"><defs><style>.cls-1{fill:#636668;}</style></defs><title>SEJ enventos</title><path id="Trazado_832" data-name="Trazado 832" class="cls-1" d="M7.92,0A.8.8,0,0,0,7.2.8v2l-3.7,3a.79.79,0,0,0-.3.62V8H.8a.8.8,0,0,0-.8.8v6.4a.8.8,0,0,0,.8.8H15.2a.8.8,0,0,0,.8-.8V8.8a.8.8,0,0,0-.8-.8H12.8V6.4a.78.78,0,0,0-.29-.62l-3.71-3V1.6h.8A.8.8,0,1,0,9.6,0H7.92ZM8,4.22,11.2,6.79V14.4H8.8V12a.8.8,0,0,0-1.6,0h0v2.4H4.8V6.78ZM1.61,9.6H3.2v4.8H1.61Zm11.2,0h1.6v4.8h-1.6Z"/></svg>