<svg id="Capa_1" data-name="Capa 1" xmlns="http://www.w3.org/2000/svg" viewBox="0 0 16.2 9.8"><defs><style>.cls-1{isolation:isolate;}.cls-2{fill:#636668;}</style></defs><title>SEJ enventos</title><g class="cls-1"><path class="cls-2" d="M.27,9.8A.24.24,0,0,1,0,9.53V8.2a.24.24,0,0,1,.27-.26H1.65V1.86H.27A.24.24,0,0,1,0,1.6V.27A.24.24,0,0,1,.27,0h5a.25.25,0,0,1,.28.27V1.6c0,.17-.1.26-.28.26H3.85V7.94H5.24c.18,0,.28.09.28.26V9.53a.25.25,0,0,1-.28.27Z"/><path class="cls-2" d="M10.71,0a5.79,5.79,0,0,1,4,1.34A4.56,4.56,0,0,1,16.2,4.9a4.56,4.56,0,0,1-1.49,3.56,5.79,5.79,0,0,1-4,1.34H7.11a.25.25,0,0,1-.28-.27V.27A.25.25,0,0,1,7.11,0Zm-.15,7.92A3.55,3.55,0,0,0,13,7.09,2.78,2.78,0,0,0,14,4.9,2.78,2.78,0,0,0,13,2.71a3.55,3.55,0,0,0-2.47-.83H9v6Z"/></g></svg>